G04*
G04 #@! TF.GenerationSoftware,Altium Limited,Altium Designer,20.0.2 (26)*
G04*
G04 Layer_Color=65535*
%FSLAX44Y44*%
%MOMM*%
G71*
G01*
G75*
%ADD10C,0.6000*%
%ADD11C,0.2500*%
%ADD12C,0.2000*%
%ADD13C,0.1000*%
%ADD14C,0.1270*%
%ADD15C,0.2540*%
D10*
X2128350Y1238600D02*
G03*
X2128350Y1238600I-3000J0D01*
G01*
X2350600D02*
G03*
X2350600Y1238600I-3000J0D01*
G01*
D11*
X2113650Y1217350D02*
G03*
X2113650Y1217350I-1250J0D01*
G01*
X2335900D02*
G03*
X2335900Y1217350I-1250J0D01*
G01*
X2045600Y1661600D02*
G03*
X2045600Y1661600I-1250J0D01*
G01*
D12*
X2345650Y1709550D02*
G03*
X2345650Y1711550I0J1000D01*
G01*
D02*
G03*
X2345650Y1709550I0J-1000D01*
G01*
X2401300Y1139100D02*
G03*
X2401300Y1139100I-1000J0D01*
G01*
X2215350Y1228600D02*
Y1260600D01*
X2115350Y1228600D02*
Y1260600D01*
X2215350D01*
X2115350Y1228600D02*
X2215350D01*
X2437600Y1228600D02*
Y1260600D01*
X2337600Y1228600D02*
Y1260600D01*
X2437600D01*
X2337600Y1228600D02*
X2437600D01*
X2078100Y1730900D02*
Y1740900D01*
X2090800Y1730900D02*
Y1740900D01*
X2046100Y1670350D02*
Y1680350D01*
X2077100Y1670350D02*
Y1680350D01*
X2046100Y1670350D02*
X2077100D01*
X2046100Y1680350D02*
X2077100D01*
X2140350Y1678716D02*
Y1691441D01*
X2126850Y1678716D02*
Y1691441D01*
X1651000Y1733550D02*
X1803400D01*
X1651000Y1758950D02*
X1803400D01*
X1651000Y1733550D02*
Y1758950D01*
X1803400Y1733550D02*
Y1758950D01*
X1568450D02*
X1619250D01*
X1568450Y1733550D02*
Y1758950D01*
Y1733550D02*
X1619250D01*
Y1758950D01*
X2159900Y1736250D02*
Y1737750D01*
X2145400Y1736250D02*
Y1737750D01*
X1917300Y1692350D02*
Y1708350D01*
X1906300Y1692350D02*
X1917300D01*
X1843300D02*
X1854300D01*
X1843300D02*
Y1708350D01*
X1999500Y1747150D02*
X2001000D01*
X1999500Y1732650D02*
X2001000D01*
D13*
X2212150Y1715750D02*
X2224650D01*
X2212150D02*
Y1738550D01*
X2334650Y1715750D02*
X2347150D01*
Y1738550D01*
X2229650Y1764550D02*
X2329650D01*
D14*
X1990400Y848300D02*
X2499900D01*
X1990400D02*
Y1133400D01*
X2499900Y848300D02*
Y1133400D01*
X1990400D02*
X2499900D01*
Y1022710D02*
Y1133400D01*
Y955600D02*
Y1022710D01*
Y848300D02*
Y955600D01*
X1990400Y1133400D02*
X2499900D01*
X1990400Y848300D02*
X2499900D01*
X1990400Y1079700D02*
Y1133400D01*
Y902800D02*
Y1079700D01*
Y848300D02*
Y902800D01*
D15*
X2298700Y1240785D02*
Y1228089D01*
X2301239Y1225550D01*
X2306317D01*
X2308857Y1228089D01*
Y1240785D01*
X2324092Y1225550D02*
X2313935D01*
X2324092Y1235707D01*
Y1238246D01*
X2321553Y1240785D01*
X2316474D01*
X2313935Y1238246D01*
X2082800Y1240785D02*
Y1228089D01*
X2085339Y1225550D01*
X2090417D01*
X2092957Y1228089D01*
Y1240785D01*
X2098035Y1225550D02*
X2103113D01*
X2100574D01*
Y1240785D01*
X2098035Y1238246D01*
X1460881Y1168014D02*
X1471038D01*
X1465959D01*
Y1152779D01*
X1476116D02*
Y1168014D01*
X1483734D01*
X1486273Y1165475D01*
Y1160396D01*
X1483734Y1157857D01*
X1476116D01*
X1491351Y1155318D02*
X1493890Y1152779D01*
X1498969D01*
X1501508Y1155318D01*
Y1165475D01*
X1498969Y1168014D01*
X1493890D01*
X1491351Y1165475D01*
Y1162936D01*
X1493890Y1160396D01*
X1501508D01*
X1460881Y1263264D02*
X1471038D01*
X1465959D01*
Y1248029D01*
X1476116D02*
Y1263264D01*
X1483734D01*
X1486273Y1260725D01*
Y1255647D01*
X1483734Y1253107D01*
X1476116D01*
X1491351Y1260725D02*
X1493890Y1263264D01*
X1498969D01*
X1501508Y1260725D01*
Y1258186D01*
X1498969Y1255647D01*
X1501508Y1253107D01*
Y1250568D01*
X1498969Y1248029D01*
X1493890D01*
X1491351Y1250568D01*
Y1253107D01*
X1493890Y1255647D01*
X1491351Y1258186D01*
Y1260725D01*
X1493890Y1255647D02*
X1498969D01*
X1460881Y1359784D02*
X1471038D01*
X1465959D01*
Y1344549D01*
X1476116D02*
Y1359784D01*
X1483734D01*
X1486273Y1357245D01*
Y1352166D01*
X1483734Y1349627D01*
X1476116D01*
X1491351Y1359784D02*
X1501508D01*
Y1357245D01*
X1491351Y1347088D01*
Y1344549D01*
X1460881Y1453764D02*
X1471038D01*
X1465959D01*
Y1438529D01*
X1476116D02*
Y1453764D01*
X1483734D01*
X1486273Y1451225D01*
Y1446147D01*
X1483734Y1443607D01*
X1476116D01*
X1501508Y1453764D02*
X1496429Y1451225D01*
X1491351Y1446147D01*
Y1441068D01*
X1493890Y1438529D01*
X1498969D01*
X1501508Y1441068D01*
Y1443607D01*
X1498969Y1446147D01*
X1491351D01*
X1460881Y1549014D02*
X1471038D01*
X1465959D01*
Y1533779D01*
X1476116D02*
Y1549014D01*
X1483734D01*
X1486273Y1546475D01*
Y1541396D01*
X1483734Y1538857D01*
X1476116D01*
X1501508Y1549014D02*
X1491351D01*
Y1541396D01*
X1496429Y1543936D01*
X1498969D01*
X1501508Y1541396D01*
Y1536318D01*
X1498969Y1533779D01*
X1493890D01*
X1491351Y1536318D01*
X1460500Y1596385D02*
X1470657D01*
X1465578D01*
Y1581150D01*
X1475735D02*
Y1596385D01*
X1483353D01*
X1485892Y1593846D01*
Y1588768D01*
X1483353Y1586228D01*
X1475735D01*
X1498588Y1581150D02*
Y1596385D01*
X1490970Y1588768D01*
X1501127D01*
X1460500Y1685285D02*
X1470657D01*
X1465578D01*
Y1670050D01*
X1475735D02*
Y1685285D01*
X1483353D01*
X1485892Y1682746D01*
Y1677668D01*
X1483353Y1675128D01*
X1475735D01*
X1490970Y1670050D02*
X1496048D01*
X1493509D01*
Y1685285D01*
X1490970Y1682746D01*
X2000250Y1663700D02*
Y1678935D01*
X2007867D01*
X2010407Y1676396D01*
Y1671317D01*
X2007867Y1668778D01*
X2000250D01*
X2005328D02*
X2010407Y1663700D01*
X2015485Y1678935D02*
X2025642D01*
X2020563D01*
Y1663700D01*
X2030720D02*
X2035798D01*
X2033259D01*
Y1678935D01*
X2030720Y1676396D01*
X1728470Y1582420D02*
Y1597655D01*
X1736087D01*
X1738627Y1595116D01*
Y1590038D01*
X1736087Y1587498D01*
X1728470D01*
X1733548D02*
X1738627Y1582420D01*
X1751323D02*
X1746244D01*
X1743705Y1584959D01*
Y1590038D01*
X1746244Y1592577D01*
X1751323D01*
X1753862Y1590038D01*
Y1587498D01*
X1743705D01*
X1758940Y1582420D02*
X1764019D01*
X1761479D01*
Y1597655D01*
X1758940Y1595116D01*
X1779254Y1582420D02*
Y1597655D01*
X1771636Y1590038D01*
X1781793D01*
X1626870Y1582420D02*
Y1597655D01*
X1634487D01*
X1637027Y1595116D01*
Y1590038D01*
X1634487Y1587498D01*
X1626870D01*
X1631948D02*
X1637027Y1582420D01*
X1649723D02*
X1644644D01*
X1642105Y1584959D01*
Y1590038D01*
X1644644Y1592577D01*
X1649723D01*
X1652262Y1590038D01*
Y1587498D01*
X1642105D01*
X1657340Y1582420D02*
X1662419D01*
X1659879D01*
Y1597655D01*
X1657340Y1595116D01*
X1670036D02*
X1672575Y1597655D01*
X1677654D01*
X1680193Y1595116D01*
Y1592577D01*
X1677654Y1590038D01*
X1675114D01*
X1677654D01*
X1680193Y1587498D01*
Y1584959D01*
X1677654Y1582420D01*
X1672575D01*
X1670036Y1584959D01*
X1530350Y1582420D02*
Y1597655D01*
X1537968D01*
X1540507Y1595116D01*
Y1590038D01*
X1537968Y1587498D01*
X1530350D01*
X1535428D02*
X1540507Y1582420D01*
X1553203D02*
X1548124D01*
X1545585Y1584959D01*
Y1590038D01*
X1548124Y1592577D01*
X1553203D01*
X1555742Y1590038D01*
Y1587498D01*
X1545585D01*
X1560820Y1582420D02*
X1565898D01*
X1563359D01*
Y1597655D01*
X1560820Y1595116D01*
X1583673Y1582420D02*
X1573516D01*
X1583673Y1592577D01*
Y1595116D01*
X1581134Y1597655D01*
X1576055D01*
X1573516Y1595116D01*
X1821180Y1239520D02*
Y1254755D01*
X1828797D01*
X1831337Y1252216D01*
Y1247138D01*
X1828797Y1244598D01*
X1821180D01*
X1826258D02*
X1831337Y1239520D01*
X1844033D02*
X1838954D01*
X1836415Y1242059D01*
Y1247138D01*
X1838954Y1249677D01*
X1844033D01*
X1846572Y1247138D01*
Y1244598D01*
X1836415D01*
X1851650Y1239520D02*
X1856729D01*
X1854189D01*
Y1254755D01*
X1851650Y1252216D01*
X1864346Y1239520D02*
X1869424D01*
X1866885D01*
Y1254755D01*
X1864346Y1252216D01*
X1841500Y1581150D02*
Y1596385D01*
X1849117D01*
X1851657Y1593846D01*
Y1588768D01*
X1849117Y1586228D01*
X1841500D01*
X1846578D02*
X1851657Y1581150D01*
X1864353D02*
X1859274D01*
X1856735Y1583689D01*
Y1588768D01*
X1859274Y1591307D01*
X1864353D01*
X1866892Y1588768D01*
Y1586228D01*
X1856735D01*
X1871970Y1581150D02*
X1877048D01*
X1874509D01*
Y1596385D01*
X1871970Y1593846D01*
X1884666D02*
X1887205Y1596385D01*
X1892284D01*
X1894823Y1593846D01*
Y1583689D01*
X1892284Y1581150D01*
X1887205D01*
X1884666Y1583689D01*
Y1593846D01*
X1739900Y1244600D02*
Y1259835D01*
X1747518D01*
X1750057Y1257296D01*
Y1252217D01*
X1747518Y1249678D01*
X1739900D01*
X1744978D02*
X1750057Y1244600D01*
X1762753D02*
X1757674D01*
X1755135Y1247139D01*
Y1252217D01*
X1757674Y1254757D01*
X1762753D01*
X1765292Y1252217D01*
Y1249678D01*
X1755135D01*
X1770370Y1247139D02*
X1772909Y1244600D01*
X1777988D01*
X1780527Y1247139D01*
Y1257296D01*
X1777988Y1259835D01*
X1772909D01*
X1770370Y1257296D01*
Y1254757D01*
X1772909Y1252217D01*
X1780527D01*
X1647190Y1249680D02*
Y1264915D01*
X1654807D01*
X1657347Y1262376D01*
Y1257298D01*
X1654807Y1254758D01*
X1647190D01*
X1652268D02*
X1657347Y1249680D01*
X1670043D02*
X1664964D01*
X1662425Y1252219D01*
Y1257298D01*
X1664964Y1259837D01*
X1670043D01*
X1672582Y1257298D01*
Y1254758D01*
X1662425D01*
X1677660Y1262376D02*
X1680199Y1264915D01*
X1685278D01*
X1687817Y1262376D01*
Y1259837D01*
X1685278Y1257298D01*
X1687817Y1254758D01*
Y1252219D01*
X1685278Y1249680D01*
X1680199D01*
X1677660Y1252219D01*
Y1254758D01*
X1680199Y1257298D01*
X1677660Y1259837D01*
Y1262376D01*
X1680199Y1257298D02*
X1685278D01*
X1541780Y1249680D02*
Y1264915D01*
X1549397D01*
X1551937Y1262376D01*
Y1257298D01*
X1549397Y1254758D01*
X1541780D01*
X1546858D02*
X1551937Y1249680D01*
X1564633D02*
X1559554D01*
X1557015Y1252219D01*
Y1257298D01*
X1559554Y1259837D01*
X1564633D01*
X1567172Y1257298D01*
Y1254758D01*
X1557015D01*
X1572250Y1264915D02*
X1582407D01*
Y1262376D01*
X1572250Y1252219D01*
Y1249680D01*
X1936750Y1581150D02*
Y1596385D01*
X1944368D01*
X1946907Y1593846D01*
Y1588768D01*
X1944368Y1586228D01*
X1936750D01*
X1941828D02*
X1946907Y1581150D01*
X1959603D02*
X1954524D01*
X1951985Y1583689D01*
Y1588768D01*
X1954524Y1591307D01*
X1959603D01*
X1962142Y1588768D01*
Y1586228D01*
X1951985D01*
X1977377Y1596385D02*
X1972298Y1593846D01*
X1967220Y1588768D01*
Y1583689D01*
X1969759Y1581150D01*
X1974838D01*
X1977377Y1583689D01*
Y1586228D01*
X1974838Y1588768D01*
X1967220D01*
X2038350Y1581150D02*
Y1596385D01*
X2045968D01*
X2048507Y1593846D01*
Y1588768D01*
X2045968Y1586228D01*
X2038350D01*
X2043428D02*
X2048507Y1581150D01*
X2061203D02*
X2056124D01*
X2053585Y1583689D01*
Y1588768D01*
X2056124Y1591307D01*
X2061203D01*
X2063742Y1588768D01*
Y1586228D01*
X2053585D01*
X2078977Y1596385D02*
X2068820D01*
Y1588768D01*
X2073898Y1591307D01*
X2076438D01*
X2078977Y1588768D01*
Y1583689D01*
X2076438Y1581150D01*
X2071359D01*
X2068820Y1583689D01*
X2146300Y1581150D02*
Y1596385D01*
X2153918D01*
X2156457Y1593846D01*
Y1588768D01*
X2153918Y1586228D01*
X2146300D01*
X2151378D02*
X2156457Y1581150D01*
X2169153D02*
X2164074D01*
X2161535Y1583689D01*
Y1588768D01*
X2164074Y1591307D01*
X2169153D01*
X2171692Y1588768D01*
Y1586228D01*
X2161535D01*
X2184388Y1581150D02*
Y1596385D01*
X2176770Y1588768D01*
X2186927D01*
X2247900Y1581150D02*
Y1596385D01*
X2255517D01*
X2258057Y1593846D01*
Y1588768D01*
X2255517Y1586228D01*
X2247900D01*
X2252978D02*
X2258057Y1581150D01*
X2270753D02*
X2265674D01*
X2263135Y1583689D01*
Y1588768D01*
X2265674Y1591307D01*
X2270753D01*
X2273292Y1588768D01*
Y1586228D01*
X2263135D01*
X2278370Y1593846D02*
X2280909Y1596385D01*
X2285988D01*
X2288527Y1593846D01*
Y1591307D01*
X2285988Y1588768D01*
X2283448D01*
X2285988D01*
X2288527Y1586228D01*
Y1583689D01*
X2285988Y1581150D01*
X2280909D01*
X2278370Y1583689D01*
X2346960Y1590040D02*
Y1605275D01*
X2354577D01*
X2357117Y1602736D01*
Y1597657D01*
X2354577Y1595118D01*
X2346960D01*
X2352038D02*
X2357117Y1590040D01*
X2369813D02*
X2364734D01*
X2362195Y1592579D01*
Y1597657D01*
X2364734Y1600197D01*
X2369813D01*
X2372352Y1597657D01*
Y1595118D01*
X2362195D01*
X2387587Y1590040D02*
X2377430D01*
X2387587Y1600197D01*
Y1602736D01*
X2385048Y1605275D01*
X2379969D01*
X2377430Y1602736D01*
X2449830Y1590040D02*
Y1605275D01*
X2457448D01*
X2459987Y1602736D01*
Y1597657D01*
X2457448Y1595118D01*
X2449830D01*
X2454908D02*
X2459987Y1590040D01*
X2472683D02*
X2467604D01*
X2465065Y1592579D01*
Y1597657D01*
X2467604Y1600197D01*
X2472683D01*
X2475222Y1597657D01*
Y1595118D01*
X2465065D01*
X2480300Y1590040D02*
X2485379D01*
X2482839D01*
Y1605275D01*
X2480300Y1602736D01*
X2127250Y1651000D02*
Y1666235D01*
X2134868D01*
X2137407Y1663696D01*
Y1658618D01*
X2134868Y1656078D01*
X2127250D01*
X2132328D02*
X2137407Y1651000D01*
X2142485D02*
X2147563D01*
X2145024D01*
Y1666235D01*
X2142485Y1663696D01*
X1530350Y1765300D02*
Y1780535D01*
X1537968D01*
X1540507Y1777996D01*
Y1772917D01*
X1537968Y1770378D01*
X1530350D01*
X1545585Y1765300D02*
X1550663D01*
X1548124D01*
Y1780535D01*
X1545585Y1777996D01*
X1568438Y1780535D02*
X1558281D01*
Y1772917D01*
X1563359Y1775457D01*
X1565898D01*
X1568438Y1772917D01*
Y1767839D01*
X1565898Y1765300D01*
X1560820D01*
X1558281Y1767839D01*
X1651000Y1701800D02*
Y1717035D01*
X1658618D01*
X1661157Y1714496D01*
Y1709418D01*
X1658618Y1706878D01*
X1651000D01*
X1666235Y1701800D02*
X1671313D01*
X1668774D01*
Y1717035D01*
X1666235Y1714496D01*
X1990090Y1148842D02*
Y1164077D01*
X1995168Y1158999D01*
X2000247Y1164077D01*
Y1148842D01*
X2005325D02*
X2010403D01*
X2007864D01*
Y1164077D01*
X2005325Y1161538D01*
X1843021Y1769168D02*
X1840482Y1771707D01*
X1835403D01*
X1832864Y1769168D01*
Y1759011D01*
X1835403Y1756472D01*
X1840482D01*
X1843021Y1759011D01*
X1855717Y1771707D02*
X1850638D01*
X1848099Y1769168D01*
Y1759011D01*
X1850638Y1756472D01*
X1855717D01*
X1858256Y1759011D01*
Y1769168D01*
X1855717Y1771707D01*
X1863334Y1756472D02*
Y1771707D01*
X1873491Y1756472D01*
Y1771707D01*
X1888726Y1756472D02*
X1878569D01*
X1888726Y1766629D01*
Y1769168D01*
X1886187Y1771707D01*
X1881109D01*
X1878569Y1769168D01*
X2315207Y1682746D02*
X2312668Y1685285D01*
X2307589D01*
X2305050Y1682746D01*
Y1672589D01*
X2307589Y1670050D01*
X2312668D01*
X2315207Y1672589D01*
X2327903Y1685285D02*
X2322824D01*
X2320285Y1682746D01*
Y1672589D01*
X2322824Y1670050D01*
X2327903D01*
X2330442Y1672589D01*
Y1682746D01*
X2327903Y1685285D01*
X2335520Y1670050D02*
Y1685285D01*
X2345677Y1670050D01*
Y1685285D01*
X2350755Y1670050D02*
X2355834D01*
X2353294D01*
Y1685285D01*
X2350755Y1682746D01*
X2105657Y1727196D02*
X2103118Y1729735D01*
X2098039D01*
X2095500Y1727196D01*
Y1717039D01*
X2098039Y1714500D01*
X2103118D01*
X2105657Y1717039D01*
X2110735Y1727196D02*
X2113274Y1729735D01*
X2118353D01*
X2120892Y1727196D01*
Y1724657D01*
X2118353Y1722117D01*
X2115813D01*
X2118353D01*
X2120892Y1719578D01*
Y1717039D01*
X2118353Y1714500D01*
X2113274D01*
X2110735Y1717039D01*
X1995823Y1771646D02*
X1993284Y1774185D01*
X1988205D01*
X1985666Y1771646D01*
Y1761489D01*
X1988205Y1758950D01*
X1993284D01*
X1995823Y1761489D01*
X2011058Y1758950D02*
X2000901D01*
X2011058Y1769107D01*
Y1771646D01*
X2008519Y1774185D01*
X2003440D01*
X2000901Y1771646D01*
X2169157D02*
X2166617Y1774185D01*
X2161539D01*
X2159000Y1771646D01*
Y1761489D01*
X2161539Y1758950D01*
X2166617D01*
X2169157Y1761489D01*
X2174235Y1758950D02*
X2179313D01*
X2176774D01*
Y1774185D01*
X2174235Y1771646D01*
M02*
