G04*
G04 #@! TF.GenerationSoftware,Altium Limited,Altium Designer,20.0.2 (26)*
G04*
G04 Layer_Color=32896*
%FSLAX44Y44*%
%MOMM*%
G71*
G01*
G75*
%ADD12C,0.2000*%
%ADD13C,0.1000*%
%ADD64C,0.0500*%
D12*
X2080450Y1727900D02*
Y1743900D01*
X2088450D01*
Y1727900D02*
Y1743900D01*
X2080450Y1727900D02*
X2088450D01*
X2129850Y1677716D02*
Y1692441D01*
X2137350D01*
Y1677716D02*
Y1692441D01*
X2129850Y1677716D02*
X2137350D01*
X2142150Y1721000D02*
X2163150D01*
Y1753000D01*
X2142150D02*
X2163150D01*
X2142150Y1721000D02*
Y1753000D01*
X2016250Y1729400D02*
Y1750400D01*
X1984250D02*
X2016250D01*
X1984250Y1729400D02*
Y1750400D01*
Y1729400D02*
X2016250D01*
D13*
X2160350Y1244600D02*
X2170350D01*
X2165350Y1239600D02*
Y1249600D01*
X2382600Y1244600D02*
X2392600D01*
X2387600Y1239600D02*
Y1249600D01*
D64*
X2217850Y1207600D02*
Y1281600D01*
X2112850Y1207600D02*
Y1281600D01*
X2217850D01*
X2112850Y1207600D02*
X2217850D01*
X2440100Y1207600D02*
Y1281600D01*
X2335100Y1207600D02*
Y1281600D01*
X2440100D01*
X2335100Y1207600D02*
X2440100D01*
M02*
