G04*
G04 #@! TF.GenerationSoftware,Altium Limited,Altium Designer,20.0.2 (26)*
G04*
G04 Layer_Color=255*
%FSLAX44Y44*%
%MOMM*%
G71*
G01*
G75*
%ADD44C,2.5000*%
%ADD51C,1.5240*%
%ADD52C,1.5000*%
%ADD53R,1.5000X1.5000*%
%ADD54C,2.5000*%
%ADD55O,2.5000X2.5000*%
%ADD56C,2.3730*%
%ADD57C,2.2968*%
%ADD58R,2.0000X2.0000*%
%ADD59C,2.0000*%
%ADD60C,3.0000*%
%ADD61C,0.4206*%
D44*
X2470150Y1549400D02*
D03*
Y1498600D02*
D03*
Y1447800D02*
D03*
X2368550Y1549400D02*
D03*
Y1498600D02*
D03*
Y1447800D02*
D03*
X2266950Y1549400D02*
D03*
Y1498600D02*
D03*
Y1447800D02*
D03*
X2165350Y1549400D02*
D03*
Y1498600D02*
D03*
Y1447800D02*
D03*
X2063750Y1549400D02*
D03*
Y1498600D02*
D03*
Y1447800D02*
D03*
X1962150Y1549400D02*
D03*
Y1498600D02*
D03*
Y1447800D02*
D03*
X1562100Y1206500D02*
D03*
Y1155700D02*
D03*
Y1104900D02*
D03*
X1663700Y1206500D02*
D03*
Y1155700D02*
D03*
Y1104900D02*
D03*
X1758950Y1206500D02*
D03*
Y1155700D02*
D03*
Y1104900D02*
D03*
X1860550Y1447800D02*
D03*
X1758950Y1549400D02*
D03*
Y1498600D02*
D03*
Y1447800D02*
D03*
X1663700Y1549400D02*
D03*
Y1498600D02*
D03*
Y1447800D02*
D03*
X1562100D02*
D03*
X1860550Y1206500D02*
D03*
Y1155700D02*
D03*
Y1104900D02*
D03*
D51*
X1466850Y1612900D02*
D03*
X1468120Y1701800D02*
D03*
X1466850Y1517650D02*
D03*
Y1422400D02*
D03*
Y1231900D02*
D03*
Y1328420D02*
D03*
Y1136650D02*
D03*
D52*
X1790700Y1746250D02*
D03*
X1765300D02*
D03*
X1739900D02*
D03*
X1714500D02*
D03*
X1689100D02*
D03*
X1606550D02*
D03*
D53*
X1663700D02*
D03*
X1581150D02*
D03*
D54*
X1860550Y1549400D02*
D03*
Y1498600D02*
D03*
D55*
X2470150Y1397000D02*
D03*
X2368550D02*
D03*
X2266950D02*
D03*
X2165350D02*
D03*
X2063750D02*
D03*
X1962150D02*
D03*
X1562100Y1054100D02*
D03*
X1663700D02*
D03*
X1758950D02*
D03*
X1860550Y1397000D02*
D03*
X1758950D02*
D03*
X1663700D02*
D03*
X1562100D02*
D03*
X1860550Y1054100D02*
D03*
D56*
X1562100Y1549400D02*
D03*
D57*
Y1498600D02*
D03*
D58*
X2400300Y1117600D02*
D03*
D59*
X2374900D02*
D03*
X2349500D02*
D03*
X2324100D02*
D03*
X2298700D02*
D03*
X2273300D02*
D03*
X2247900D02*
D03*
X2222500D02*
D03*
X2197100D02*
D03*
X2171700D02*
D03*
X2146300D02*
D03*
X2120900D02*
D03*
X2095500D02*
D03*
X2070100D02*
D03*
X2044700D02*
D03*
X2400300Y863600D02*
D03*
X2374900D02*
D03*
X2349500D02*
D03*
X2324100D02*
D03*
X2298700D02*
D03*
X2273300D02*
D03*
X2247900D02*
D03*
X2222500D02*
D03*
X2197100D02*
D03*
X2171700D02*
D03*
X2146300D02*
D03*
X2120900D02*
D03*
X2095500D02*
D03*
X2070100D02*
D03*
X2044700D02*
D03*
D60*
X2010400Y1113400D02*
D03*
Y868300D02*
D03*
X2479900D02*
D03*
Y1113400D02*
D03*
D61*
X1901050Y1696350D02*
D03*
X1859550D02*
D03*
M02*
