G04*
G04 #@! TF.GenerationSoftware,Altium Limited,Altium Designer,20.0.2 (26)*
G04*
G04 Layer_Color=255*
%FSLAX44Y44*%
%MOMM*%
G71*
G01*
G75*
%ADD16O,0.6000X1.4500*%
%ADD17R,0.5200X0.5200*%
%ADD18R,0.6500X0.9500*%
%ADD19R,0.4725X0.4682*%
%ADD20R,0.0976X1.1000*%
%ADD21R,0.1230X1.1000*%
%ADD22R,1.7000X1.5000*%
%ADD23R,1.4000X0.9500*%
%ADD24R,1.9000X1.9000*%
%ADD25R,1.5968X1.6714*%
%ADD26R,0.0952X1.3500*%
%ADD27R,0.9500X1.4000*%
%ADD44C,2.5000*%
%ADD51C,1.5240*%
%ADD52C,1.5000*%
%ADD53R,1.5000X1.5000*%
%ADD54C,2.5000*%
%ADD55O,2.5000X2.5000*%
%ADD56C,2.3730*%
%ADD57C,2.2968*%
%ADD58R,2.0000X2.0000*%
%ADD59C,2.0000*%
%ADD60C,3.0000*%
%ADD61C,0.4206*%
D16*
X2209800Y1271850D02*
D03*
X2197100D02*
D03*
X2184400D02*
D03*
X2171700D02*
D03*
X2159000D02*
D03*
X2146300D02*
D03*
X2133600D02*
D03*
X2120900D02*
D03*
X2209800Y1217350D02*
D03*
X2197100D02*
D03*
X2184400D02*
D03*
X2171700D02*
D03*
X2159000D02*
D03*
X2146300D02*
D03*
X2133600D02*
D03*
X2120900D02*
D03*
X2432050Y1271850D02*
D03*
X2419350D02*
D03*
X2406650D02*
D03*
X2393950D02*
D03*
X2381250D02*
D03*
X2368550D02*
D03*
X2355850D02*
D03*
X2343150D02*
D03*
X2432050Y1217350D02*
D03*
X2419350D02*
D03*
X2406650D02*
D03*
X2393950D02*
D03*
X2381250D02*
D03*
X2368550D02*
D03*
X2355850D02*
D03*
X2343150D02*
D03*
D17*
X2084450Y1731900D02*
D03*
Y1739900D02*
D03*
D18*
X2053100Y1661600D02*
D03*
X2061600D02*
D03*
X2070100D02*
D03*
Y1689100D02*
D03*
X2053100D02*
D03*
D19*
X2133600Y1681057D02*
D03*
Y1689100D02*
D03*
D20*
X2327150Y1715750D02*
D03*
X2322150D02*
D03*
X2317150D02*
D03*
X2312150D02*
D03*
X2307150D02*
D03*
X2302150D02*
D03*
X2297150D02*
D03*
X2292150D02*
D03*
X2287150D02*
D03*
X2257150D02*
D03*
X2252150D02*
D03*
X2247150D02*
D03*
X2242150D02*
D03*
X2237150D02*
D03*
X2232150D02*
D03*
D21*
X2282150D02*
D03*
X2277150D02*
D03*
X2272150D02*
D03*
X2267150D02*
D03*
X2262150D02*
D03*
D22*
X2343650Y1754750D02*
D03*
X2215650D02*
D03*
D23*
X2152650Y1746250D02*
D03*
Y1727750D02*
D03*
D24*
X1892300Y1720850D02*
D03*
X1868300D02*
D03*
D25*
X1920300D02*
D03*
X1840300D02*
D03*
D26*
X1893300Y1694100D02*
D03*
X1867300D02*
D03*
X1886800D02*
D03*
X1880300D02*
D03*
X1873800D02*
D03*
D27*
X1991000Y1739900D02*
D03*
X2009500D02*
D03*
D44*
X2470150Y1549400D02*
D03*
Y1498600D02*
D03*
Y1447800D02*
D03*
X2368550Y1549400D02*
D03*
Y1498600D02*
D03*
Y1447800D02*
D03*
X2266950Y1549400D02*
D03*
Y1498600D02*
D03*
Y1447800D02*
D03*
X2165350Y1549400D02*
D03*
Y1498600D02*
D03*
Y1447800D02*
D03*
X2063750Y1549400D02*
D03*
Y1498600D02*
D03*
Y1447800D02*
D03*
X1962150Y1549400D02*
D03*
Y1498600D02*
D03*
Y1447800D02*
D03*
X1562100Y1206500D02*
D03*
Y1155700D02*
D03*
Y1104900D02*
D03*
X1663700Y1206500D02*
D03*
Y1155700D02*
D03*
Y1104900D02*
D03*
X1758950Y1206500D02*
D03*
Y1155700D02*
D03*
Y1104900D02*
D03*
X1860550Y1447800D02*
D03*
X1758950Y1549400D02*
D03*
Y1498600D02*
D03*
Y1447800D02*
D03*
X1663700Y1549400D02*
D03*
Y1498600D02*
D03*
Y1447800D02*
D03*
X1562100D02*
D03*
X1860550Y1206500D02*
D03*
Y1155700D02*
D03*
Y1104900D02*
D03*
D51*
X1466850Y1612900D02*
D03*
X1468120Y1701800D02*
D03*
X1466850Y1517650D02*
D03*
Y1422400D02*
D03*
Y1231900D02*
D03*
Y1328420D02*
D03*
Y1136650D02*
D03*
D52*
X1790700Y1746250D02*
D03*
X1765300D02*
D03*
X1739900D02*
D03*
X1714500D02*
D03*
X1689100D02*
D03*
X1606550D02*
D03*
D53*
X1663700D02*
D03*
X1581150D02*
D03*
D54*
X1860550Y1549400D02*
D03*
Y1498600D02*
D03*
D55*
X2470150Y1397000D02*
D03*
X2368550D02*
D03*
X2266950D02*
D03*
X2165350D02*
D03*
X2063750D02*
D03*
X1962150D02*
D03*
X1562100Y1054100D02*
D03*
X1663700D02*
D03*
X1758950D02*
D03*
X1860550Y1397000D02*
D03*
X1758950D02*
D03*
X1663700D02*
D03*
X1562100D02*
D03*
X1860550Y1054100D02*
D03*
D56*
X1562100Y1549400D02*
D03*
D57*
Y1498600D02*
D03*
D58*
X2400300Y1117600D02*
D03*
D59*
X2374900D02*
D03*
X2349500D02*
D03*
X2324100D02*
D03*
X2298700D02*
D03*
X2273300D02*
D03*
X2247900D02*
D03*
X2222500D02*
D03*
X2197100D02*
D03*
X2171700D02*
D03*
X2146300D02*
D03*
X2120900D02*
D03*
X2095500D02*
D03*
X2070100D02*
D03*
X2044700D02*
D03*
X2400300Y863600D02*
D03*
X2374900D02*
D03*
X2349500D02*
D03*
X2324100D02*
D03*
X2298700D02*
D03*
X2273300D02*
D03*
X2247900D02*
D03*
X2222500D02*
D03*
X2197100D02*
D03*
X2171700D02*
D03*
X2146300D02*
D03*
X2120900D02*
D03*
X2095500D02*
D03*
X2070100D02*
D03*
X2044700D02*
D03*
D60*
X2010400Y1113400D02*
D03*
Y868300D02*
D03*
X2479900D02*
D03*
Y1113400D02*
D03*
D61*
X1901050Y1696350D02*
D03*
X1859550D02*
D03*
M02*
