G04*
G04 #@! TF.GenerationSoftware,Altium Limited,Altium Designer,20.0.2 (26)*
G04*
G04 Layer_Color=16711935*
%FSLAX44Y44*%
%MOMM*%
G71*
G01*
G75*
%ADD12C,0.2000*%
%ADD13C,0.1000*%
G36*
X2082587Y1746463D02*
X2082665Y1746453D01*
X2082743Y1746443D01*
X2082841Y1746424D01*
X2082938Y1746395D01*
X2083163Y1746326D01*
X2083289Y1746278D01*
X2083406Y1746209D01*
X2083524Y1746141D01*
X2083640Y1746063D01*
X2083758Y1745966D01*
X2083875Y1745858D01*
X2083884Y1745849D01*
X2083904Y1745829D01*
X2083923Y1745800D01*
X2083962Y1745751D01*
X2084011Y1745692D01*
X2084060Y1745614D01*
X2084109Y1745527D01*
X2084158Y1745439D01*
X2084216Y1745332D01*
X2084265Y1745215D01*
X2084314Y1745088D01*
X2084362Y1744951D01*
X2084401Y1744805D01*
X2084421Y1744649D01*
X2084440Y1744483D01*
X2084450Y1744317D01*
Y1744239D01*
X2084440Y1744181D01*
X2084431Y1744103D01*
X2084421Y1744025D01*
X2084411Y1743927D01*
X2084391Y1743830D01*
X2084333Y1743605D01*
X2084236Y1743371D01*
X2084187Y1743254D01*
X2084118Y1743147D01*
X2084040Y1743030D01*
X2083953Y1742923D01*
X2083943Y1742913D01*
X2083933Y1742903D01*
X2083904Y1742874D01*
X2083865Y1742835D01*
X2083806Y1742796D01*
X2083748Y1742747D01*
X2083680Y1742688D01*
X2083602Y1742640D01*
X2083406Y1742523D01*
X2083182Y1742425D01*
X2082928Y1742337D01*
X2082792Y1742308D01*
X2082646Y1742289D01*
X2082538Y1743078D01*
X2082548D01*
X2082568Y1743088D01*
X2082607D01*
X2082646Y1743108D01*
X2082763Y1743137D01*
X2082909Y1743186D01*
X2083065Y1743244D01*
X2083231Y1743322D01*
X2083377Y1743420D01*
X2083504Y1743527D01*
X2083514Y1743547D01*
X2083553Y1743586D01*
X2083592Y1743654D01*
X2083650Y1743752D01*
X2083699Y1743859D01*
X2083748Y1743995D01*
X2083787Y1744151D01*
X2083797Y1744317D01*
Y1744376D01*
X2083787Y1744415D01*
X2083777Y1744512D01*
X2083748Y1744639D01*
X2083699Y1744795D01*
X2083640Y1744951D01*
X2083543Y1745107D01*
X2083416Y1745254D01*
X2083397Y1745273D01*
X2083348Y1745312D01*
X2083270Y1745371D01*
X2083153Y1745449D01*
X2083016Y1745517D01*
X2082850Y1745576D01*
X2082665Y1745614D01*
X2082460Y1745634D01*
X2082451D01*
X2082441D01*
X2082412D01*
X2082372Y1745624D01*
X2082275Y1745614D01*
X2082148Y1745585D01*
X2082012Y1745546D01*
X2081856Y1745478D01*
X2081709Y1745390D01*
X2081573Y1745273D01*
X2081553Y1745254D01*
X2081514Y1745215D01*
X2081465Y1745137D01*
X2081397Y1745029D01*
X2081329Y1744902D01*
X2081280Y1744746D01*
X2081241Y1744581D01*
X2081222Y1744386D01*
Y1744298D01*
X2081231Y1744229D01*
X2081241Y1744151D01*
X2081251Y1744054D01*
X2081270Y1743947D01*
X2081300Y1743830D01*
X2080607Y1743917D01*
Y1743966D01*
X2080617Y1744005D01*
Y1744132D01*
X2080607Y1744220D01*
X2080588Y1744346D01*
X2080558Y1744483D01*
X2080510Y1744629D01*
X2080451Y1744785D01*
X2080363Y1744942D01*
X2080354Y1744961D01*
X2080314Y1745010D01*
X2080246Y1745068D01*
X2080159Y1745146D01*
X2080051Y1745224D01*
X2079915Y1745283D01*
X2079749Y1745332D01*
X2079554Y1745351D01*
X2079544D01*
X2079534D01*
X2079485D01*
X2079407Y1745332D01*
X2079300Y1745312D01*
X2079193Y1745283D01*
X2079076Y1745224D01*
X2078949Y1745156D01*
X2078842Y1745058D01*
X2078832Y1745049D01*
X2078793Y1745010D01*
X2078744Y1744942D01*
X2078695Y1744854D01*
X2078637Y1744746D01*
X2078598Y1744620D01*
X2078559Y1744473D01*
X2078549Y1744308D01*
Y1744229D01*
X2078569Y1744142D01*
X2078588Y1744044D01*
X2078617Y1743917D01*
X2078676Y1743790D01*
X2078744Y1743664D01*
X2078842Y1743537D01*
X2078851Y1743527D01*
X2078891Y1743488D01*
X2078959Y1743439D01*
X2079056Y1743381D01*
X2079173Y1743313D01*
X2079320Y1743254D01*
X2079495Y1743196D01*
X2079700Y1743157D01*
X2079563Y1742366D01*
X2079554D01*
X2079525Y1742376D01*
X2079485Y1742386D01*
X2079437Y1742396D01*
X2079368Y1742415D01*
X2079290Y1742435D01*
X2079115Y1742503D01*
X2078920Y1742581D01*
X2078715Y1742698D01*
X2078520Y1742835D01*
X2078344Y1743010D01*
X2078335Y1743020D01*
X2078325Y1743030D01*
X2078305Y1743059D01*
X2078276Y1743108D01*
X2078247Y1743157D01*
X2078208Y1743215D01*
X2078120Y1743361D01*
X2078042Y1743547D01*
X2077974Y1743771D01*
X2077925Y1744015D01*
X2077905Y1744151D01*
Y1744376D01*
X2077915Y1744473D01*
X2077935Y1744600D01*
X2077964Y1744746D01*
X2078003Y1744912D01*
X2078062Y1745078D01*
X2078139Y1745244D01*
Y1745254D01*
X2078149Y1745263D01*
X2078179Y1745322D01*
X2078227Y1745400D01*
X2078295Y1745497D01*
X2078383Y1745605D01*
X2078491Y1745722D01*
X2078617Y1745829D01*
X2078754Y1745927D01*
X2078773Y1745936D01*
X2078822Y1745966D01*
X2078900Y1746005D01*
X2078998Y1746044D01*
X2079125Y1746083D01*
X2079261Y1746122D01*
X2079407Y1746151D01*
X2079573Y1746161D01*
X2079593D01*
X2079642D01*
X2079720Y1746151D01*
X2079817Y1746131D01*
X2079934Y1746102D01*
X2080061Y1746063D01*
X2080197Y1746014D01*
X2080324Y1745936D01*
X2080344Y1745927D01*
X2080383Y1745897D01*
X2080441Y1745839D01*
X2080519Y1745771D01*
X2080607Y1745673D01*
X2080695Y1745566D01*
X2080793Y1745429D01*
X2080871Y1745273D01*
Y1745283D01*
X2080880Y1745302D01*
Y1745332D01*
X2080900Y1745371D01*
X2080929Y1745468D01*
X2080988Y1745595D01*
X2081056Y1745732D01*
X2081153Y1745878D01*
X2081270Y1746024D01*
X2081417Y1746151D01*
X2081436Y1746161D01*
X2081495Y1746200D01*
X2081582Y1746248D01*
X2081700Y1746317D01*
X2081846Y1746375D01*
X2082021Y1746424D01*
X2082226Y1746463D01*
X2082451Y1746473D01*
X2082460D01*
X2082490D01*
X2082529D01*
X2082587Y1746463D01*
D02*
G37*
G36*
X2082363Y1741547D02*
X2082412Y1741528D01*
X2082490Y1741508D01*
X2082568Y1741469D01*
X2082675Y1741430D01*
X2082782Y1741391D01*
X2082899Y1741333D01*
X2083163Y1741206D01*
X2083426Y1741030D01*
X2083680Y1740835D01*
X2083797Y1740718D01*
X2083904Y1740591D01*
X2083914Y1740582D01*
X2083923Y1740562D01*
X2083953Y1740523D01*
X2083992Y1740465D01*
X2084031Y1740396D01*
X2084079Y1740318D01*
X2084128Y1740231D01*
X2084177Y1740123D01*
X2084226Y1740006D01*
X2084274Y1739879D01*
X2084323Y1739733D01*
X2084362Y1739587D01*
X2084431Y1739265D01*
X2084440Y1739089D01*
X2084450Y1738904D01*
Y1738806D01*
X2084440Y1738728D01*
Y1738641D01*
X2084431Y1738543D01*
X2084411Y1738426D01*
X2084401Y1738309D01*
X2084343Y1738036D01*
X2084274Y1737753D01*
X2084167Y1737480D01*
X2084109Y1737343D01*
X2084031Y1737217D01*
X2084021Y1737207D01*
X2084011Y1737187D01*
X2083982Y1737158D01*
X2083953Y1737109D01*
X2083855Y1736992D01*
X2083719Y1736856D01*
X2083553Y1736690D01*
X2083338Y1736534D01*
X2083094Y1736368D01*
X2082811Y1736232D01*
X2082802D01*
X2082772Y1736222D01*
X2082733Y1736202D01*
X2082675Y1736183D01*
X2082597Y1736154D01*
X2082509Y1736124D01*
X2082412Y1736095D01*
X2082294Y1736066D01*
X2082177Y1736036D01*
X2082041Y1736007D01*
X2081748Y1735949D01*
X2081436Y1735910D01*
X2081095Y1735900D01*
X2081085D01*
X2081046D01*
X2080997D01*
X2080929Y1735910D01*
X2080841D01*
X2080734Y1735919D01*
X2080627Y1735929D01*
X2080500Y1735949D01*
X2080227Y1735997D01*
X2079934Y1736056D01*
X2079632Y1736154D01*
X2079349Y1736280D01*
X2079339D01*
X2079320Y1736300D01*
X2079281Y1736319D01*
X2079222Y1736349D01*
X2079164Y1736388D01*
X2079095Y1736436D01*
X2078929Y1736563D01*
X2078744Y1736709D01*
X2078559Y1736895D01*
X2078374Y1737119D01*
X2078217Y1737363D01*
Y1737373D01*
X2078198Y1737392D01*
X2078179Y1737431D01*
X2078159Y1737490D01*
X2078130Y1737548D01*
X2078091Y1737626D01*
X2078062Y1737724D01*
X2078022Y1737821D01*
X2077983Y1737929D01*
X2077954Y1738046D01*
X2077886Y1738309D01*
X2077847Y1738602D01*
X2077827Y1738914D01*
Y1739011D01*
X2077837Y1739080D01*
X2077847Y1739158D01*
X2077857Y1739255D01*
X2077866Y1739362D01*
X2077886Y1739480D01*
X2077944Y1739733D01*
X2078032Y1740006D01*
X2078091Y1740143D01*
X2078159Y1740279D01*
X2078237Y1740406D01*
X2078325Y1740533D01*
X2078335Y1740543D01*
X2078344Y1740562D01*
X2078374Y1740591D01*
X2078413Y1740640D01*
X2078461Y1740689D01*
X2078530Y1740757D01*
X2078598Y1740825D01*
X2078676Y1740894D01*
X2078773Y1740972D01*
X2078871Y1741040D01*
X2078988Y1741118D01*
X2079115Y1741196D01*
X2079242Y1741264D01*
X2079388Y1741333D01*
X2079700Y1741450D01*
X2079895Y1740611D01*
X2079885D01*
X2079866Y1740601D01*
X2079827Y1740591D01*
X2079778Y1740572D01*
X2079720Y1740543D01*
X2079651Y1740513D01*
X2079505Y1740445D01*
X2079339Y1740357D01*
X2079164Y1740240D01*
X2079008Y1740113D01*
X2078871Y1739957D01*
X2078861Y1739938D01*
X2078822Y1739879D01*
X2078773Y1739792D01*
X2078705Y1739665D01*
X2078647Y1739518D01*
X2078598Y1739333D01*
X2078559Y1739128D01*
X2078549Y1738894D01*
Y1738826D01*
X2078559Y1738777D01*
Y1738709D01*
X2078569Y1738641D01*
X2078598Y1738465D01*
X2078637Y1738270D01*
X2078705Y1738065D01*
X2078793Y1737860D01*
X2078910Y1737665D01*
Y1737655D01*
X2078929Y1737646D01*
X2078978Y1737587D01*
X2079056Y1737500D01*
X2079164Y1737392D01*
X2079300Y1737285D01*
X2079456Y1737168D01*
X2079651Y1737061D01*
X2079866Y1736973D01*
X2079876D01*
X2079895Y1736963D01*
X2079924Y1736953D01*
X2079973Y1736944D01*
X2080022Y1736924D01*
X2080090Y1736914D01*
X2080246Y1736875D01*
X2080432Y1736836D01*
X2080636Y1736807D01*
X2080861Y1736788D01*
X2081095Y1736778D01*
X2081105D01*
X2081134D01*
X2081173D01*
X2081231D01*
X2081300Y1736788D01*
X2081387D01*
X2081475Y1736797D01*
X2081573Y1736807D01*
X2081797Y1736836D01*
X2082041Y1736875D01*
X2082285Y1736934D01*
X2082519Y1737012D01*
X2082529D01*
X2082548Y1737021D01*
X2082577Y1737041D01*
X2082616Y1737061D01*
X2082733Y1737109D01*
X2082860Y1737187D01*
X2083016Y1737295D01*
X2083163Y1737421D01*
X2083309Y1737568D01*
X2083436Y1737743D01*
Y1737753D01*
X2083445Y1737763D01*
X2083465Y1737792D01*
X2083484Y1737831D01*
X2083524Y1737938D01*
X2083582Y1738075D01*
X2083631Y1738231D01*
X2083680Y1738416D01*
X2083719Y1738621D01*
X2083728Y1738836D01*
Y1738904D01*
X2083719Y1738953D01*
Y1739011D01*
X2083709Y1739089D01*
X2083680Y1739255D01*
X2083631Y1739440D01*
X2083553Y1739645D01*
X2083455Y1739840D01*
X2083319Y1740035D01*
X2083309Y1740045D01*
X2083299Y1740055D01*
X2083241Y1740113D01*
X2083143Y1740201D01*
X2083016Y1740309D01*
X2082841Y1740416D01*
X2082636Y1740533D01*
X2082382Y1740630D01*
X2082099Y1740708D01*
X2082314Y1741557D01*
X2082324D01*
X2082363Y1741547D01*
D02*
G37*
G36*
X2133600Y1693379D02*
X2128587D01*
X2128596Y1693369D01*
X2128636Y1693330D01*
X2128684Y1693262D01*
X2128752Y1693174D01*
X2128840Y1693067D01*
X2128928Y1692940D01*
X2129035Y1692794D01*
X2129133Y1692628D01*
Y1692618D01*
X2129143Y1692608D01*
X2129182Y1692550D01*
X2129230Y1692462D01*
X2129289Y1692355D01*
X2129357Y1692228D01*
X2129416Y1692091D01*
X2129484Y1691945D01*
X2129543Y1691808D01*
X2128772D01*
Y1691818D01*
X2128762Y1691838D01*
X2128743Y1691877D01*
X2128714Y1691916D01*
X2128684Y1691974D01*
X2128655Y1692043D01*
X2128567Y1692199D01*
X2128460Y1692374D01*
X2128333Y1692569D01*
X2128187Y1692764D01*
X2128031Y1692950D01*
X2128021Y1692959D01*
X2128011Y1692969D01*
X2127953Y1693028D01*
X2127865Y1693116D01*
X2127758Y1693223D01*
X2127621Y1693340D01*
X2127475Y1693457D01*
X2127319Y1693564D01*
X2127163Y1693652D01*
Y1694169D01*
X2133600D01*
Y1693379D01*
D02*
G37*
G36*
Y1689653D02*
X2132274Y1688804D01*
X2132264D01*
X2132244Y1688785D01*
X2132215Y1688765D01*
X2132176Y1688746D01*
X2132079Y1688678D01*
X2131952Y1688590D01*
X2131805Y1688492D01*
X2131659Y1688385D01*
X2131523Y1688288D01*
X2131396Y1688190D01*
X2131386Y1688180D01*
X2131347Y1688151D01*
X2131288Y1688102D01*
X2131220Y1688053D01*
X2131084Y1687907D01*
X2131015Y1687839D01*
X2130967Y1687761D01*
X2130957Y1687751D01*
X2130947Y1687731D01*
X2130928Y1687693D01*
X2130898Y1687644D01*
X2130840Y1687527D01*
X2130791Y1687380D01*
Y1687371D01*
X2130781Y1687351D01*
Y1687312D01*
X2130771Y1687263D01*
X2130762Y1687195D01*
Y1687117D01*
X2130752Y1687020D01*
Y1685927D01*
X2133600D01*
Y1685078D01*
X2127192D01*
Y1688053D01*
X2127202Y1688131D01*
Y1688210D01*
X2127211Y1688405D01*
X2127231Y1688609D01*
X2127270Y1688824D01*
X2127309Y1689029D01*
X2127338Y1689126D01*
X2127368Y1689214D01*
Y1689224D01*
X2127377Y1689234D01*
X2127397Y1689292D01*
X2127446Y1689370D01*
X2127514Y1689468D01*
X2127592Y1689585D01*
X2127699Y1689702D01*
X2127826Y1689819D01*
X2127982Y1689926D01*
X2128002Y1689936D01*
X2128060Y1689965D01*
X2128148Y1690014D01*
X2128265Y1690063D01*
X2128411Y1690111D01*
X2128577Y1690160D01*
X2128752Y1690189D01*
X2128948Y1690199D01*
X2128957D01*
X2128977D01*
X2129016D01*
X2129065Y1690189D01*
X2129123D01*
X2129191Y1690180D01*
X2129348Y1690141D01*
X2129533Y1690092D01*
X2129718Y1690014D01*
X2129913Y1689897D01*
X2130011Y1689828D01*
X2130099Y1689751D01*
X2130118Y1689731D01*
X2130137Y1689702D01*
X2130177Y1689673D01*
X2130206Y1689624D01*
X2130255Y1689565D01*
X2130294Y1689497D01*
X2130342Y1689419D01*
X2130391Y1689331D01*
X2130440Y1689224D01*
X2130489Y1689117D01*
X2130537Y1688990D01*
X2130586Y1688863D01*
X2130625Y1688717D01*
X2130654Y1688561D01*
X2130684Y1688395D01*
X2130694Y1688414D01*
X2130713Y1688453D01*
X2130742Y1688512D01*
X2130781Y1688580D01*
X2130889Y1688746D01*
X2130947Y1688834D01*
X2131006Y1688902D01*
X2131025Y1688922D01*
X2131064Y1688970D01*
X2131142Y1689039D01*
X2131240Y1689126D01*
X2131366Y1689234D01*
X2131513Y1689351D01*
X2131679Y1689477D01*
X2131864Y1689604D01*
X2133600Y1690716D01*
Y1689653D01*
D02*
G37*
G36*
X2152543Y1745554D02*
X2147529D01*
X2147539Y1745544D01*
X2147578Y1745505D01*
X2147627Y1745437D01*
X2147695Y1745349D01*
X2147783Y1745242D01*
X2147871Y1745115D01*
X2147978Y1744968D01*
X2148076Y1744803D01*
Y1744793D01*
X2148085Y1744783D01*
X2148124Y1744725D01*
X2148173Y1744637D01*
X2148232Y1744530D01*
X2148300Y1744403D01*
X2148358Y1744266D01*
X2148427Y1744120D01*
X2148485Y1743983D01*
X2147715D01*
Y1743993D01*
X2147705Y1744012D01*
X2147686Y1744052D01*
X2147656Y1744091D01*
X2147627Y1744149D01*
X2147598Y1744217D01*
X2147510Y1744373D01*
X2147403Y1744549D01*
X2147276Y1744744D01*
X2147130Y1744939D01*
X2146974Y1745124D01*
X2146964Y1745134D01*
X2146954Y1745144D01*
X2146895Y1745202D01*
X2146808Y1745290D01*
X2146700Y1745398D01*
X2146564Y1745515D01*
X2146418Y1745632D01*
X2146261Y1745739D01*
X2146105Y1745827D01*
Y1746344D01*
X2152543D01*
Y1745554D01*
D02*
G37*
G36*
X2150563Y1742647D02*
X2150612Y1742628D01*
X2150690Y1742608D01*
X2150768Y1742569D01*
X2150875Y1742530D01*
X2150982Y1742491D01*
X2151099Y1742433D01*
X2151363Y1742306D01*
X2151626Y1742130D01*
X2151879Y1741935D01*
X2151997Y1741818D01*
X2152104Y1741691D01*
X2152114Y1741681D01*
X2152123Y1741662D01*
X2152153Y1741623D01*
X2152192Y1741564D01*
X2152231Y1741496D01*
X2152279Y1741418D01*
X2152328Y1741330D01*
X2152377Y1741223D01*
X2152426Y1741106D01*
X2152475Y1740979D01*
X2152523Y1740833D01*
X2152562Y1740687D01*
X2152631Y1740365D01*
X2152640Y1740189D01*
X2152650Y1740004D01*
Y1739906D01*
X2152640Y1739828D01*
Y1739740D01*
X2152631Y1739643D01*
X2152611Y1739526D01*
X2152601Y1739409D01*
X2152543Y1739136D01*
X2152475Y1738853D01*
X2152367Y1738580D01*
X2152309Y1738443D01*
X2152231Y1738316D01*
X2152221Y1738307D01*
X2152211Y1738287D01*
X2152182Y1738258D01*
X2152153Y1738209D01*
X2152055Y1738092D01*
X2151919Y1737956D01*
X2151753Y1737790D01*
X2151538Y1737634D01*
X2151294Y1737468D01*
X2151012Y1737331D01*
X2151002D01*
X2150972Y1737322D01*
X2150933Y1737302D01*
X2150875Y1737283D01*
X2150797Y1737253D01*
X2150709Y1737224D01*
X2150612Y1737195D01*
X2150495Y1737166D01*
X2150378Y1737136D01*
X2150241Y1737107D01*
X2149948Y1737048D01*
X2149636Y1737009D01*
X2149295Y1737000D01*
X2149285D01*
X2149246D01*
X2149197D01*
X2149129Y1737009D01*
X2149041D01*
X2148934Y1737019D01*
X2148827Y1737029D01*
X2148700Y1737048D01*
X2148427Y1737097D01*
X2148134Y1737156D01*
X2147832Y1737253D01*
X2147549Y1737380D01*
X2147539D01*
X2147520Y1737400D01*
X2147481Y1737419D01*
X2147422Y1737448D01*
X2147364Y1737487D01*
X2147295Y1737536D01*
X2147130Y1737663D01*
X2146944Y1737809D01*
X2146759Y1737995D01*
X2146574Y1738219D01*
X2146418Y1738463D01*
Y1738472D01*
X2146398Y1738492D01*
X2146378Y1738531D01*
X2146359Y1738589D01*
X2146330Y1738648D01*
X2146291Y1738726D01*
X2146261Y1738824D01*
X2146223Y1738921D01*
X2146183Y1739028D01*
X2146154Y1739146D01*
X2146086Y1739409D01*
X2146047Y1739701D01*
X2146027Y1740014D01*
Y1740111D01*
X2146037Y1740179D01*
X2146047Y1740257D01*
X2146057Y1740355D01*
X2146066Y1740462D01*
X2146086Y1740579D01*
X2146144Y1740833D01*
X2146232Y1741106D01*
X2146291Y1741243D01*
X2146359Y1741379D01*
X2146437Y1741506D01*
X2146525Y1741633D01*
X2146535Y1741642D01*
X2146544Y1741662D01*
X2146574Y1741691D01*
X2146613Y1741740D01*
X2146661Y1741789D01*
X2146730Y1741857D01*
X2146798Y1741925D01*
X2146876Y1741994D01*
X2146974Y1742072D01*
X2147071Y1742140D01*
X2147188Y1742218D01*
X2147315Y1742296D01*
X2147442Y1742364D01*
X2147588Y1742433D01*
X2147900Y1742549D01*
X2148095Y1741711D01*
X2148085D01*
X2148066Y1741701D01*
X2148027Y1741691D01*
X2147978Y1741672D01*
X2147920Y1741642D01*
X2147851Y1741613D01*
X2147705Y1741545D01*
X2147539Y1741457D01*
X2147364Y1741340D01*
X2147208Y1741213D01*
X2147071Y1741057D01*
X2147061Y1741038D01*
X2147022Y1740979D01*
X2146974Y1740891D01*
X2146905Y1740765D01*
X2146847Y1740618D01*
X2146798Y1740433D01*
X2146759Y1740228D01*
X2146749Y1739994D01*
Y1739926D01*
X2146759Y1739877D01*
Y1739809D01*
X2146769Y1739740D01*
X2146798Y1739565D01*
X2146837Y1739370D01*
X2146905Y1739165D01*
X2146993Y1738960D01*
X2147110Y1738765D01*
Y1738755D01*
X2147130Y1738746D01*
X2147178Y1738687D01*
X2147256Y1738599D01*
X2147364Y1738492D01*
X2147500Y1738385D01*
X2147656Y1738268D01*
X2147851Y1738160D01*
X2148066Y1738073D01*
X2148076D01*
X2148095Y1738063D01*
X2148124Y1738053D01*
X2148173Y1738043D01*
X2148222Y1738024D01*
X2148290Y1738014D01*
X2148446Y1737975D01*
X2148632Y1737936D01*
X2148836Y1737907D01*
X2149061Y1737887D01*
X2149295Y1737878D01*
X2149305D01*
X2149334D01*
X2149373D01*
X2149431D01*
X2149500Y1737887D01*
X2149587D01*
X2149675Y1737897D01*
X2149773Y1737907D01*
X2149997Y1737936D01*
X2150241Y1737975D01*
X2150485Y1738034D01*
X2150719Y1738112D01*
X2150729D01*
X2150748Y1738121D01*
X2150777Y1738141D01*
X2150816Y1738160D01*
X2150933Y1738209D01*
X2151060Y1738287D01*
X2151216Y1738394D01*
X2151363Y1738521D01*
X2151509Y1738668D01*
X2151636Y1738843D01*
Y1738853D01*
X2151646Y1738863D01*
X2151665Y1738892D01*
X2151685Y1738931D01*
X2151723Y1739038D01*
X2151782Y1739175D01*
X2151831Y1739331D01*
X2151879Y1739516D01*
X2151919Y1739721D01*
X2151928Y1739935D01*
Y1740004D01*
X2151919Y1740053D01*
Y1740111D01*
X2151909Y1740189D01*
X2151879Y1740355D01*
X2151831Y1740540D01*
X2151753Y1740745D01*
X2151655Y1740940D01*
X2151519Y1741135D01*
X2151509Y1741145D01*
X2151499Y1741155D01*
X2151441Y1741213D01*
X2151343Y1741301D01*
X2151216Y1741408D01*
X2151041Y1741516D01*
X2150836Y1741633D01*
X2150582Y1741730D01*
X2150300Y1741808D01*
X2150514Y1742657D01*
X2150524D01*
X2150563Y1742647D01*
D02*
G37*
G36*
X1997422Y1739890D02*
X1997509D01*
X1997607Y1739881D01*
X1997724Y1739861D01*
X1997841Y1739851D01*
X1998114Y1739793D01*
X1998397Y1739724D01*
X1998670Y1739617D01*
X1998806Y1739559D01*
X1998933Y1739481D01*
X1998943Y1739471D01*
X1998963Y1739461D01*
X1998992Y1739432D01*
X1999041Y1739403D01*
X1999158Y1739305D01*
X1999294Y1739169D01*
X1999460Y1739003D01*
X1999616Y1738788D01*
X1999782Y1738544D01*
X1999919Y1738262D01*
Y1738252D01*
X1999928Y1738223D01*
X1999948Y1738183D01*
X1999967Y1738125D01*
X1999996Y1738047D01*
X2000026Y1737959D01*
X2000055Y1737862D01*
X2000084Y1737744D01*
X2000114Y1737628D01*
X2000143Y1737491D01*
X2000201Y1737198D01*
X2000240Y1736886D01*
X2000250Y1736545D01*
Y1736535D01*
Y1736496D01*
Y1736447D01*
X2000240Y1736379D01*
Y1736291D01*
X2000231Y1736184D01*
X2000221Y1736077D01*
X2000201Y1735950D01*
X2000152Y1735677D01*
X2000094Y1735384D01*
X1999996Y1735082D01*
X1999870Y1734799D01*
Y1734789D01*
X1999850Y1734770D01*
X1999831Y1734731D01*
X1999801Y1734672D01*
X1999762Y1734614D01*
X1999714Y1734545D01*
X1999587Y1734379D01*
X1999440Y1734194D01*
X1999255Y1734009D01*
X1999031Y1733824D01*
X1998787Y1733667D01*
X1998777D01*
X1998758Y1733648D01*
X1998719Y1733629D01*
X1998660Y1733609D01*
X1998602Y1733580D01*
X1998524Y1733541D01*
X1998426Y1733512D01*
X1998329Y1733472D01*
X1998221Y1733433D01*
X1998104Y1733404D01*
X1997841Y1733336D01*
X1997548Y1733297D01*
X1997236Y1733277D01*
X1997139D01*
X1997070Y1733287D01*
X1996992Y1733297D01*
X1996895Y1733307D01*
X1996788Y1733316D01*
X1996671Y1733336D01*
X1996417Y1733394D01*
X1996144Y1733482D01*
X1996007Y1733541D01*
X1995871Y1733609D01*
X1995744Y1733687D01*
X1995617Y1733775D01*
X1995607Y1733785D01*
X1995588Y1733794D01*
X1995559Y1733824D01*
X1995510Y1733863D01*
X1995461Y1733911D01*
X1995393Y1733980D01*
X1995325Y1734048D01*
X1995256Y1734126D01*
X1995178Y1734223D01*
X1995110Y1734321D01*
X1995032Y1734438D01*
X1994954Y1734565D01*
X1994886Y1734692D01*
X1994817Y1734838D01*
X1994700Y1735150D01*
X1995539Y1735345D01*
Y1735335D01*
X1995549Y1735316D01*
X1995559Y1735277D01*
X1995578Y1735228D01*
X1995607Y1735170D01*
X1995637Y1735101D01*
X1995705Y1734955D01*
X1995793Y1734789D01*
X1995910Y1734614D01*
X1996037Y1734458D01*
X1996193Y1734321D01*
X1996212Y1734311D01*
X1996271Y1734272D01*
X1996358Y1734223D01*
X1996485Y1734155D01*
X1996631Y1734097D01*
X1996817Y1734048D01*
X1997022Y1734009D01*
X1997256Y1733999D01*
X1997324D01*
X1997373Y1734009D01*
X1997441D01*
X1997509Y1734019D01*
X1997685Y1734048D01*
X1997880Y1734087D01*
X1998085Y1734155D01*
X1998290Y1734243D01*
X1998485Y1734360D01*
X1998494D01*
X1998504Y1734379D01*
X1998563Y1734428D01*
X1998651Y1734506D01*
X1998758Y1734614D01*
X1998865Y1734750D01*
X1998982Y1734906D01*
X1999089Y1735101D01*
X1999177Y1735316D01*
Y1735326D01*
X1999187Y1735345D01*
X1999197Y1735374D01*
X1999206Y1735423D01*
X1999226Y1735472D01*
X1999236Y1735540D01*
X1999275Y1735696D01*
X1999314Y1735882D01*
X1999343Y1736086D01*
X1999362Y1736311D01*
X1999372Y1736545D01*
Y1736555D01*
Y1736584D01*
Y1736623D01*
Y1736681D01*
X1999362Y1736750D01*
Y1736837D01*
X1999353Y1736925D01*
X1999343Y1737023D01*
X1999314Y1737247D01*
X1999275Y1737491D01*
X1999216Y1737735D01*
X1999138Y1737969D01*
Y1737979D01*
X1999128Y1737998D01*
X1999109Y1738027D01*
X1999089Y1738066D01*
X1999041Y1738183D01*
X1998963Y1738310D01*
X1998855Y1738466D01*
X1998728Y1738613D01*
X1998582Y1738759D01*
X1998407Y1738886D01*
X1998397D01*
X1998387Y1738896D01*
X1998358Y1738915D01*
X1998319Y1738934D01*
X1998212Y1738974D01*
X1998075Y1739032D01*
X1997919Y1739081D01*
X1997734Y1739129D01*
X1997529Y1739169D01*
X1997314Y1739178D01*
X1997246D01*
X1997197Y1739169D01*
X1997139D01*
X1997061Y1739159D01*
X1996895Y1739129D01*
X1996709Y1739081D01*
X1996505Y1739003D01*
X1996310Y1738905D01*
X1996115Y1738769D01*
X1996105Y1738759D01*
X1996095Y1738749D01*
X1996037Y1738691D01*
X1995949Y1738593D01*
X1995841Y1738466D01*
X1995734Y1738291D01*
X1995617Y1738086D01*
X1995520Y1737832D01*
X1995442Y1737549D01*
X1994593Y1737764D01*
Y1737774D01*
X1994603Y1737813D01*
X1994622Y1737862D01*
X1994642Y1737940D01*
X1994681Y1738018D01*
X1994720Y1738125D01*
X1994759Y1738232D01*
X1994817Y1738349D01*
X1994944Y1738613D01*
X1995120Y1738876D01*
X1995315Y1739129D01*
X1995432Y1739247D01*
X1995559Y1739354D01*
X1995568Y1739364D01*
X1995588Y1739373D01*
X1995627Y1739403D01*
X1995685Y1739442D01*
X1995754Y1739481D01*
X1995832Y1739529D01*
X1995919Y1739578D01*
X1996027Y1739627D01*
X1996144Y1739676D01*
X1996271Y1739724D01*
X1996417Y1739773D01*
X1996563Y1739812D01*
X1996885Y1739881D01*
X1997061Y1739890D01*
X1997246Y1739900D01*
X1997343D01*
X1997422Y1739890D01*
D02*
G37*
G36*
X1993978Y1739783D02*
Y1739744D01*
Y1739686D01*
X1993969Y1739617D01*
X1993959Y1739539D01*
X1993949Y1739451D01*
X1993920Y1739354D01*
X1993891Y1739256D01*
Y1739247D01*
X1993881Y1739237D01*
X1993862Y1739178D01*
X1993822Y1739100D01*
X1993764Y1738983D01*
X1993696Y1738856D01*
X1993598Y1738710D01*
X1993501Y1738564D01*
X1993374Y1738408D01*
Y1738398D01*
X1993354Y1738388D01*
X1993306Y1738330D01*
X1993228Y1738242D01*
X1993110Y1738125D01*
X1992964Y1737988D01*
X1992789Y1737823D01*
X1992574Y1737637D01*
X1992340Y1737432D01*
X1992330Y1737423D01*
X1992291Y1737393D01*
X1992242Y1737354D01*
X1992174Y1737286D01*
X1992086Y1737218D01*
X1991989Y1737130D01*
X1991774Y1736945D01*
X1991540Y1736720D01*
X1991306Y1736496D01*
X1991189Y1736389D01*
X1991091Y1736281D01*
X1991004Y1736174D01*
X1990926Y1736077D01*
Y1736067D01*
X1990906Y1736057D01*
X1990887Y1736028D01*
X1990867Y1735989D01*
X1990809Y1735891D01*
X1990740Y1735764D01*
X1990672Y1735618D01*
X1990614Y1735462D01*
X1990574Y1735287D01*
X1990555Y1735121D01*
Y1735111D01*
Y1735101D01*
X1990565Y1735043D01*
X1990574Y1734955D01*
X1990594Y1734848D01*
X1990643Y1734721D01*
X1990701Y1734594D01*
X1990779Y1734458D01*
X1990896Y1734331D01*
X1990916Y1734321D01*
X1990955Y1734282D01*
X1991033Y1734233D01*
X1991131Y1734165D01*
X1991257Y1734106D01*
X1991404Y1734058D01*
X1991579Y1734019D01*
X1991774Y1734009D01*
X1991833D01*
X1991872Y1734019D01*
X1991969Y1734028D01*
X1992096Y1734048D01*
X1992242Y1734097D01*
X1992398Y1734155D01*
X1992545Y1734243D01*
X1992681Y1734360D01*
X1992691Y1734379D01*
X1992730Y1734419D01*
X1992789Y1734497D01*
X1992847Y1734604D01*
X1992915Y1734740D01*
X1992964Y1734897D01*
X1993003Y1735082D01*
X1993023Y1735296D01*
X1993832Y1735209D01*
Y1735199D01*
Y1735170D01*
X1993822Y1735121D01*
X1993813Y1735062D01*
X1993793Y1734984D01*
X1993783Y1734897D01*
X1993725Y1734701D01*
X1993647Y1734477D01*
X1993540Y1734253D01*
X1993393Y1734028D01*
X1993315Y1733931D01*
X1993218Y1733833D01*
X1993208Y1733824D01*
X1993188Y1733814D01*
X1993159Y1733785D01*
X1993120Y1733755D01*
X1993062Y1733726D01*
X1992993Y1733677D01*
X1992915Y1733638D01*
X1992828Y1733589D01*
X1992730Y1733551D01*
X1992623Y1733502D01*
X1992496Y1733463D01*
X1992369Y1733433D01*
X1992077Y1733375D01*
X1991920Y1733365D01*
X1991755Y1733355D01*
X1991667D01*
X1991599Y1733365D01*
X1991521Y1733375D01*
X1991433Y1733385D01*
X1991335Y1733394D01*
X1991228Y1733424D01*
X1990994Y1733482D01*
X1990750Y1733570D01*
X1990623Y1733629D01*
X1990506Y1733697D01*
X1990399Y1733785D01*
X1990292Y1733872D01*
X1990282Y1733882D01*
X1990272Y1733892D01*
X1990243Y1733921D01*
X1990204Y1733960D01*
X1990165Y1734019D01*
X1990116Y1734077D01*
X1990018Y1734223D01*
X1989921Y1734409D01*
X1989833Y1734623D01*
X1989765Y1734867D01*
X1989755Y1735004D01*
X1989745Y1735140D01*
Y1735160D01*
Y1735209D01*
X1989755Y1735287D01*
X1989765Y1735384D01*
X1989785Y1735501D01*
X1989814Y1735628D01*
X1989853Y1735764D01*
X1989911Y1735901D01*
X1989921Y1735921D01*
X1989940Y1735969D01*
X1989980Y1736038D01*
X1990038Y1736135D01*
X1990106Y1736252D01*
X1990194Y1736389D01*
X1990311Y1736525D01*
X1990438Y1736681D01*
X1990457Y1736701D01*
X1990506Y1736759D01*
X1990594Y1736847D01*
X1990652Y1736906D01*
X1990721Y1736974D01*
X1990799Y1737052D01*
X1990896Y1737140D01*
X1990994Y1737228D01*
X1991101Y1737335D01*
X1991218Y1737442D01*
X1991355Y1737559D01*
X1991491Y1737676D01*
X1991647Y1737813D01*
X1991657Y1737823D01*
X1991677Y1737842D01*
X1991716Y1737871D01*
X1991764Y1737910D01*
X1991882Y1738008D01*
X1992028Y1738135D01*
X1992174Y1738271D01*
X1992330Y1738408D01*
X1992457Y1738525D01*
X1992506Y1738574D01*
X1992554Y1738622D01*
X1992564Y1738632D01*
X1992584Y1738661D01*
X1992623Y1738700D01*
X1992672Y1738759D01*
X1992779Y1738886D01*
X1992886Y1739042D01*
X1989736D01*
Y1739793D01*
X1993978D01*
Y1739783D01*
D02*
G37*
%LPC*%
G36*
X2128948Y1689321D02*
X2128938D01*
X2128928D01*
X2128870D01*
X2128792Y1689302D01*
X2128684Y1689282D01*
X2128567Y1689243D01*
X2128440Y1689185D01*
X2128314Y1689097D01*
X2128197Y1688990D01*
X2128187Y1688970D01*
X2128148Y1688931D01*
X2128099Y1688843D01*
X2128050Y1688736D01*
X2127992Y1688590D01*
X2127953Y1688414D01*
X2127914Y1688200D01*
X2127904Y1687946D01*
Y1685927D01*
X2130020D01*
Y1687839D01*
X2130011Y1687946D01*
X2130001Y1688073D01*
X2129991Y1688219D01*
X2129972Y1688375D01*
X2129942Y1688522D01*
X2129904Y1688648D01*
X2129894Y1688668D01*
X2129884Y1688707D01*
X2129855Y1688765D01*
X2129816Y1688834D01*
X2129757Y1688912D01*
X2129689Y1688999D01*
X2129611Y1689077D01*
X2129523Y1689146D01*
X2129513Y1689155D01*
X2129474Y1689175D01*
X2129426Y1689204D01*
X2129348Y1689234D01*
X2129270Y1689263D01*
X2129172Y1689292D01*
X2129065Y1689312D01*
X2128948Y1689321D01*
D02*
G37*
%LPD*%
D12*
X2080450Y1727900D02*
Y1743900D01*
X2088450D01*
Y1727900D02*
Y1743900D01*
X2080450Y1727900D02*
X2088450D01*
X2129850Y1677716D02*
Y1692441D01*
X2137350D01*
Y1677716D02*
Y1692441D01*
X2129850Y1677716D02*
X2137350D01*
X2142150Y1721000D02*
X2163150D01*
Y1753000D01*
X2142150D02*
X2163150D01*
X2142150Y1721000D02*
Y1753000D01*
X2016250Y1729400D02*
Y1750400D01*
X1984250D02*
X2016250D01*
X1984250Y1729400D02*
Y1750400D01*
Y1729400D02*
X2016250D01*
D13*
X2129350Y1233600D02*
G03*
X2129350Y1233600I-5000J0D01*
G01*
X2351600D02*
G03*
X2351600Y1233600I-5000J0D01*
G01*
X2215350Y1224600D02*
Y1264600D01*
X2115350Y1224600D02*
Y1264600D01*
X2215350D01*
X2115350Y1224600D02*
X2215350D01*
X2437600Y1224600D02*
Y1264600D01*
X2337600Y1224600D02*
Y1264600D01*
X2437600D01*
X2337600Y1224600D02*
X2437600D01*
M02*
