G04*
G04 #@! TF.GenerationSoftware,Altium Limited,Altium Designer,20.0.2 (26)*
G04*
G04 Layer_Color=8388736*
%FSLAX44Y44*%
%MOMM*%
G71*
G01*
G75*
%ADD17R,0.5200X0.5200*%
%ADD19R,0.4725X0.4682*%
%ADD23R,1.4000X0.9500*%
%ADD27R,0.9500X1.4000*%
%ADD28O,0.8032X1.6532*%
%ADD29R,0.8532X1.1532*%
%ADD30R,0.1992X1.2016*%
%ADD31R,0.2246X1.2016*%
%ADD32R,1.9032X1.7032*%
%ADD33R,2.1032X2.1032*%
%ADD34R,1.8000X1.8746*%
%ADD35R,0.2984X1.5532*%
%ADD36C,1.7272*%
%ADD37C,1.7032*%
%ADD38R,1.7032X1.7032*%
%ADD39C,2.6524*%
%ADD40C,2.7032*%
%ADD41O,2.7032X2.7032*%
%ADD42C,2.7032*%
%ADD43C,2.5762*%
%ADD44C,2.5000*%
%ADD45R,2.2032X2.2032*%
%ADD46C,2.2032*%
%ADD47C,3.2032*%
%ADD48C,0.6238*%
%ADD49C,1.4732*%
D17*
X2084450Y1731900D02*
D03*
Y1739900D02*
D03*
D19*
X2133600Y1681057D02*
D03*
Y1689100D02*
D03*
D23*
X2152650Y1746250D02*
D03*
Y1727750D02*
D03*
D27*
X1991000Y1739900D02*
D03*
X2009500D02*
D03*
D28*
X2209800Y1271850D02*
D03*
X2197100D02*
D03*
X2184400D02*
D03*
X2171700D02*
D03*
X2159000D02*
D03*
X2146300D02*
D03*
X2133600D02*
D03*
X2120900D02*
D03*
X2209800Y1217350D02*
D03*
X2197100D02*
D03*
X2184400D02*
D03*
X2171700D02*
D03*
X2159000D02*
D03*
X2146300D02*
D03*
X2133600D02*
D03*
X2120900D02*
D03*
X2432050Y1271850D02*
D03*
X2419350D02*
D03*
X2406650D02*
D03*
X2393950D02*
D03*
X2381250D02*
D03*
X2368550D02*
D03*
X2355850D02*
D03*
X2343150D02*
D03*
X2432050Y1217350D02*
D03*
X2419350D02*
D03*
X2406650D02*
D03*
X2393950D02*
D03*
X2381250D02*
D03*
X2368550D02*
D03*
X2355850D02*
D03*
X2343150D02*
D03*
D29*
X2053100Y1661600D02*
D03*
X2061600D02*
D03*
X2070100D02*
D03*
Y1689100D02*
D03*
X2053100D02*
D03*
D30*
X2327150Y1715750D02*
D03*
X2322150D02*
D03*
X2317150D02*
D03*
X2312150D02*
D03*
X2307150D02*
D03*
X2302150D02*
D03*
X2297150D02*
D03*
X2292150D02*
D03*
X2287150D02*
D03*
X2257150D02*
D03*
X2252150D02*
D03*
X2247150D02*
D03*
X2242150D02*
D03*
X2237150D02*
D03*
X2232150D02*
D03*
D31*
X2282150D02*
D03*
X2277150D02*
D03*
X2272150D02*
D03*
X2267150D02*
D03*
X2262150D02*
D03*
D32*
X2343650Y1754750D02*
D03*
X2215650D02*
D03*
D33*
X1892300Y1720850D02*
D03*
X1868300D02*
D03*
D34*
X1920300D02*
D03*
X1840300D02*
D03*
D35*
X1893300Y1694100D02*
D03*
X1867300D02*
D03*
X1886800D02*
D03*
X1880300D02*
D03*
X1873800D02*
D03*
D36*
X1466850Y1612900D02*
D03*
X1468120Y1701800D02*
D03*
X1466850Y1517650D02*
D03*
Y1422400D02*
D03*
Y1231900D02*
D03*
Y1328420D02*
D03*
Y1136650D02*
D03*
D37*
X1790700Y1746250D02*
D03*
X1765300D02*
D03*
X1739900D02*
D03*
X1714500D02*
D03*
X1689100D02*
D03*
X1606550D02*
D03*
D38*
X1663700D02*
D03*
X1581150D02*
D03*
D39*
X1860550Y1549400D02*
D03*
D40*
X2470150D02*
D03*
Y1498600D02*
D03*
Y1447800D02*
D03*
X2368550Y1549400D02*
D03*
Y1498600D02*
D03*
Y1447800D02*
D03*
X2266950Y1549400D02*
D03*
Y1498600D02*
D03*
Y1447800D02*
D03*
X2165350Y1549400D02*
D03*
Y1498600D02*
D03*
Y1447800D02*
D03*
X2063750Y1549400D02*
D03*
Y1498600D02*
D03*
Y1447800D02*
D03*
X1962150Y1549400D02*
D03*
Y1498600D02*
D03*
Y1447800D02*
D03*
X1562100Y1206500D02*
D03*
Y1155700D02*
D03*
Y1104900D02*
D03*
X1663700Y1206500D02*
D03*
Y1155700D02*
D03*
Y1104900D02*
D03*
X1758950Y1206500D02*
D03*
Y1155700D02*
D03*
Y1104900D02*
D03*
X1860550Y1447800D02*
D03*
X1758950Y1549400D02*
D03*
Y1498600D02*
D03*
Y1447800D02*
D03*
X1663700Y1549400D02*
D03*
Y1498600D02*
D03*
Y1447800D02*
D03*
X1562100D02*
D03*
X1860550Y1206500D02*
D03*
Y1155700D02*
D03*
Y1104900D02*
D03*
D41*
X2470150Y1397000D02*
D03*
X2368550D02*
D03*
X2266950D02*
D03*
X2165350D02*
D03*
X2063750D02*
D03*
X1962150D02*
D03*
X1562100Y1054100D02*
D03*
X1663700D02*
D03*
X1758950D02*
D03*
X1860550Y1397000D02*
D03*
X1758950D02*
D03*
X1663700D02*
D03*
X1562100D02*
D03*
X1860550Y1054100D02*
D03*
D42*
Y1498600D02*
D03*
D43*
X1562100Y1549400D02*
D03*
D44*
Y1498600D02*
D03*
D45*
X2400300Y1117600D02*
D03*
D46*
X2374900D02*
D03*
X2349500D02*
D03*
X2324100D02*
D03*
X2298700D02*
D03*
X2273300D02*
D03*
X2247900D02*
D03*
X2222500D02*
D03*
X2197100D02*
D03*
X2171700D02*
D03*
X2146300D02*
D03*
X2120900D02*
D03*
X2095500D02*
D03*
X2070100D02*
D03*
X2044700D02*
D03*
X2400300Y863600D02*
D03*
X2374900D02*
D03*
X2349500D02*
D03*
X2324100D02*
D03*
X2298700D02*
D03*
X2273300D02*
D03*
X2247900D02*
D03*
X2222500D02*
D03*
X2197100D02*
D03*
X2171700D02*
D03*
X2146300D02*
D03*
X2120900D02*
D03*
X2095500D02*
D03*
X2070100D02*
D03*
X2044700D02*
D03*
D47*
X2010400Y1113400D02*
D03*
Y868300D02*
D03*
X2479900D02*
D03*
Y1113400D02*
D03*
D48*
X1901050Y1696350D02*
D03*
X1859550D02*
D03*
D49*
X2152650Y939800D02*
D03*
X2178050Y1066800D02*
D03*
X2451100Y1149350D02*
D03*
X2241550Y1187450D02*
D03*
X2311400Y1174750D02*
D03*
X2273300Y1301750D02*
D03*
X2381250Y1314450D02*
D03*
X2362200Y1308100D02*
D03*
X2343150Y1295400D02*
D03*
X2311400Y1263650D02*
D03*
X2152650Y1339850D02*
D03*
X2178050Y1327150D02*
D03*
X2159000Y1308100D02*
D03*
X1962150Y1295400D02*
D03*
X2228850Y1504950D02*
D03*
X2381250Y1336675D02*
D03*
X2330450Y1377950D02*
D03*
Y1606550D02*
D03*
X2406650Y1339850D02*
D03*
X2425700Y1358900D02*
D03*
X2209800Y1327150D02*
D03*
X1714500Y1295400D02*
D03*
X1701800Y1568450D02*
D03*
X1714500Y1384300D02*
D03*
X1701800Y1612900D02*
D03*
X1708150Y1676400D02*
D03*
X1663700Y1689100D02*
D03*
X1778000Y1593850D02*
D03*
X1530350Y1333500D02*
D03*
X1524000Y1441450D02*
D03*
X1498600Y1479550D02*
D03*
X2171700Y1689100D02*
D03*
X2374900Y1663700D02*
D03*
Y1714500D02*
D03*
X2019300Y1663700D02*
D03*
X2241550Y1739900D02*
D03*
X2044700Y1758950D02*
D03*
X2197100Y1676400D02*
D03*
X2051050Y1301750D02*
D03*
X2000250Y1314450D02*
D03*
X1612900Y1263650D02*
D03*
X1460500Y971550D02*
D03*
M02*
