G04*
G04 #@! TF.GenerationSoftware,Altium Limited,Altium Designer,20.0.2 (26)*
G04*
G04 Layer_Physical_Order=1*
G04 Layer_Color=255*
%FSLAX25Y25*%
%MOIN*%
G70*
G01*
G75*
%ADD15C,0.01000*%
%ADD16R,0.06693X0.05906*%
%ADD17R,0.00384X0.04331*%
%ADD18R,0.00484X0.04331*%
%ADD19R,0.02559X0.03740*%
%ADD20O,0.02362X0.05709*%
%ADD21R,0.01860X0.01843*%
%ADD22R,0.03740X0.05512*%
%ADD23R,0.02047X0.02047*%
%ADD24R,0.00375X0.05315*%
%ADD25R,0.06287X0.06580*%
%ADD26R,0.07480X0.07480*%
%ADD27R,0.05512X0.03740*%
%ADD39C,0.09843*%
%ADD50C,0.01200*%
%ADD51C,0.06000*%
%ADD52O,0.09843X0.09843*%
%ADD53C,0.09042*%
%ADD54C,0.09343*%
%ADD55R,0.05906X0.05906*%
%ADD56C,0.05906*%
%ADD57C,0.11811*%
%ADD58C,0.07874*%
%ADD59R,0.07874X0.07874*%
%ADD60C,0.01656*%
%ADD61C,0.09843*%
%ADD62C,0.05000*%
D15*
X882736Y675492D02*
X884705D01*
X880768D02*
X882736D01*
X878799D02*
X880768D01*
X905000Y370000D02*
X935000Y340000D01*
X847500Y370000D02*
X905000D01*
X857500Y420000D02*
X977500D01*
X845000Y430000D02*
X890000D01*
X835000Y440000D02*
X845000Y430000D01*
X894563Y439563D02*
X895000Y440000D01*
X894563Y434563D02*
Y439563D01*
X890000Y430000D02*
X894563Y434563D01*
X895000Y430586D02*
Y440000D01*
X815000D02*
X827500Y427500D01*
X975000D01*
X898032Y662500D02*
X940676D01*
X983623Y619553D01*
Y436123D02*
Y619553D01*
X975000Y427500D02*
X983623Y436123D01*
X872662Y477338D02*
X882500Y467500D01*
X870000Y477967D02*
Y479272D01*
Y477967D02*
X870629Y477338D01*
X872662D01*
X895586Y430000D02*
X932500D01*
X895000Y430586D02*
X895586Y430000D01*
X935000Y432500D02*
Y440000D01*
X932500Y430000D02*
X935000Y432500D01*
X910000Y462721D02*
X922500Y475221D01*
X910000Y462500D02*
Y462721D01*
X922500Y475221D02*
Y479272D01*
X937500Y500728D02*
Y517500D01*
X930000Y503228D02*
Y515000D01*
Y503228D02*
X932500Y500728D01*
X927500D02*
Y505000D01*
X922500Y510000D02*
X927500Y505000D01*
X919816Y497500D02*
X922500Y500184D01*
X910000Y497500D02*
X919816D01*
X922500Y500184D02*
Y500728D01*
X832500Y525000D02*
X845000Y512500D01*
X777500Y525000D02*
X832500D01*
X772500Y520000D02*
X777500Y525000D01*
X847500Y524243D02*
Y527500D01*
Y524243D02*
X855000Y516743D01*
X860000Y500728D02*
Y520000D01*
X857500Y522500D02*
X860000Y520000D01*
X855000Y500728D02*
Y516743D01*
X850000Y500728D02*
Y515000D01*
X772500Y510000D02*
Y520000D01*
X937500Y525000D02*
Y526250D01*
Y525000D02*
X942500Y520000D01*
Y500728D02*
Y520000D01*
X880445Y480445D02*
X917500Y517500D01*
Y542500D01*
Y637500D02*
X935000Y655000D01*
X917500Y632500D02*
Y637500D01*
X947500Y500728D02*
Y527500D01*
X955000Y503228D02*
Y535000D01*
X952500Y500728D02*
X955000Y503228D01*
X865000Y517500D02*
X870000Y522500D01*
X865000Y500728D02*
Y517500D01*
X735000Y662500D02*
Y672500D01*
X775000D02*
X782488Y679988D01*
X735000Y672500D02*
X775000D01*
X782488Y679988D02*
Y682744D01*
X783858Y684114D02*
Y685000D01*
X782488Y682744D02*
X783858Y684114D01*
X705000Y682500D02*
Y687500D01*
Y682500D02*
X727500Y660000D01*
X732500D02*
X735000Y662500D01*
X727500Y660000D02*
X732500D01*
X675000Y510000D02*
Y545000D01*
X670000Y617500D02*
Y635000D01*
X672500Y660000D02*
Y664243D01*
X685000Y676743D01*
Y687500D01*
X655000Y665000D02*
Y687500D01*
X700000Y627500D02*
X735000D01*
X752500Y610000D01*
X590000Y582500D02*
Y592500D01*
X577500Y523000D02*
X599418D01*
X601418Y525000D01*
X602500D01*
X600000Y567500D02*
Y595000D01*
X602500Y597500D01*
X867500Y602500D02*
X875000Y610000D01*
X600000Y602500D02*
X867500D01*
X590000Y592500D02*
X600000Y602500D01*
X602500Y597500D02*
X920000D01*
X932500Y610000D01*
X875000D02*
X892500D01*
X935000Y675000D02*
Y692500D01*
X928406Y699094D02*
X935000Y692500D01*
X912500Y699094D02*
X928406D01*
X900453Y687047D02*
X912500Y699094D01*
X870000Y479272D02*
Y479816D01*
X870629Y480445D01*
X880445D01*
X957500Y462500D02*
Y479272D01*
X935000Y440000D02*
X957500Y462500D01*
X952500Y475000D02*
Y479272D01*
X925000Y447500D02*
X952500Y475000D01*
X925000Y440000D02*
Y447500D01*
X903086D02*
X920000D01*
X905000Y440000D02*
Y441860D01*
X902500Y444360D02*
X905000Y441860D01*
X902500Y444360D02*
Y446914D01*
X903086Y447500D01*
X920000D02*
X947500Y475000D01*
Y479272D01*
X875000Y449414D02*
X875586Y450000D01*
X875000Y440000D02*
Y449414D01*
X875586Y450000D02*
X920000D01*
X942500Y472500D02*
Y479272D01*
X920000Y450000D02*
X942500Y472500D01*
X917500Y452500D02*
X937500Y472500D01*
X870000Y452500D02*
X917500D01*
X865000Y447500D02*
X870000Y452500D01*
X915000Y455000D02*
X932500Y472500D01*
X860000Y455000D02*
X915000D01*
X855000Y450000D02*
X860000Y455000D01*
X932500Y472500D02*
Y479272D01*
X927500Y472500D02*
Y479272D01*
X912500Y457500D02*
X927500Y472500D01*
X810000Y457500D02*
X912500D01*
X805000Y452500D02*
X810000Y457500D01*
X865000Y440000D02*
Y447500D01*
X937500Y472500D02*
Y479272D01*
X855000Y440000D02*
Y450000D01*
X805000Y440000D02*
Y452500D01*
X865000Y340000D02*
Y342500D01*
X852567Y354933D02*
X865000Y342500D01*
X797500Y354933D02*
X852567D01*
X782500Y369933D02*
X797500Y354933D01*
X782500Y369933D02*
Y450000D01*
X792500Y460000D01*
X855000D01*
X865000Y470000D02*
Y479272D01*
X855000Y460000D02*
X865000Y470000D01*
X790586Y462500D02*
X852500D01*
X780000Y451914D02*
X790586Y462500D01*
X855000Y335000D02*
Y340000D01*
X850000Y330000D02*
X855000Y335000D01*
X787500Y330000D02*
X850000D01*
X780000Y337500D02*
X787500Y330000D01*
X780000Y337500D02*
Y451914D01*
X860000Y470000D02*
Y479272D01*
X852500Y462500D02*
X860000Y470000D01*
X777500Y335586D02*
Y452500D01*
X885000Y330000D02*
Y340000D01*
X880000Y325000D02*
X885000Y330000D01*
X785000Y325000D02*
X880000D01*
X867500Y327500D02*
X874563Y334563D01*
X785586Y327500D02*
X867500D01*
X874563Y334563D02*
Y339563D01*
X875000Y340000D01*
X777500Y335586D02*
X785586Y327500D01*
X777500Y452500D02*
X790000Y465000D01*
X845000D01*
X855000Y475000D02*
Y479272D01*
X845000Y465000D02*
X855000Y475000D01*
X775000Y335000D02*
X785000Y325000D01*
X775000Y335000D02*
Y455000D01*
X787500Y467500D01*
X842500D01*
X850000Y475000D01*
Y479272D01*
X782500Y322500D02*
X902500D01*
X772500Y332500D02*
X782500Y322500D01*
X772500Y332500D02*
Y455000D01*
X780000Y320000D02*
X910000D01*
X770000Y330000D02*
X780000Y320000D01*
X770000Y330000D02*
Y455000D01*
X780000Y317500D02*
X920000D01*
X767500Y330000D02*
X780000Y317500D01*
X767500Y330000D02*
Y457500D01*
X905000Y325000D02*
Y340000D01*
X902500Y322500D02*
X905000Y325000D01*
X787500Y470000D02*
X840000D01*
X772500Y455000D02*
X787500Y470000D01*
X845000Y475000D02*
Y479272D01*
X840000Y470000D02*
X845000Y475000D01*
X915000Y325000D02*
Y340000D01*
X910000Y320000D02*
X915000Y325000D01*
X770000Y455000D02*
X787500Y472500D01*
X837500D01*
X840000Y475000D01*
Y479272D01*
X767500Y457500D02*
X788098Y478098D01*
X765000Y542500D02*
X772500Y550000D01*
X765000Y410000D02*
Y542500D01*
X747500Y392500D02*
X765000Y410000D01*
X925000Y322500D02*
Y340000D01*
X920000Y317500D02*
X925000Y322500D01*
X835000Y478728D02*
Y479272D01*
X834371Y478098D02*
X835000Y478728D01*
X788098Y478098D02*
X834371D01*
X896516Y664016D02*
X898032Y662500D01*
X896516Y664016D02*
Y675492D01*
X987500Y430000D02*
Y662500D01*
X977500Y420000D02*
X987500Y430000D01*
X900000Y667500D02*
X982500D01*
X987500Y662500D01*
X898484Y669016D02*
Y675492D01*
Y669016D02*
X900000Y667500D01*
X565000Y670000D02*
X572500Y677500D01*
X565000Y562500D02*
Y670000D01*
Y562500D02*
X575000Y552500D01*
X570000Y567500D02*
Y645000D01*
Y567500D02*
X577500Y560000D01*
X580000Y655000D02*
X795000D01*
X570000Y645000D02*
X580000Y655000D01*
X752500Y610000D02*
X772500D01*
X852500Y647500D02*
X865000Y660000D01*
X590000Y647500D02*
X852500D01*
X577500Y635000D02*
X590000Y647500D01*
X859507Y645000D02*
X888642Y674135D01*
X617500Y645000D02*
X859507D01*
X615000Y642500D02*
X617500Y645000D01*
X860000Y642500D02*
X890610Y673110D01*
X662500Y642500D02*
X860000D01*
X655000Y635000D02*
X662500Y642500D01*
X860462Y640000D02*
X894547Y674085D01*
X695000Y640000D02*
X860462D01*
X692500Y637500D02*
X695000Y640000D01*
X837500Y665000D02*
X840000D01*
X821890D02*
X837500D01*
X811654Y654764D02*
X821890Y665000D01*
X811654Y654173D02*
Y654764D01*
X820650Y671240D02*
Y681850D01*
X815000Y665590D02*
X820650Y671240D01*
X815000Y665000D02*
Y665590D01*
X882500Y685000D02*
X886673Y680827D01*
Y675492D02*
Y680827D01*
X793398Y682744D02*
X805000Y671142D01*
Y692500D01*
Y671142D02*
X808307Y667835D01*
Y665000D02*
Y667835D01*
X792512Y682744D02*
X793398D01*
X791142Y684114D02*
X792512Y682744D01*
X791142Y684114D02*
Y685000D01*
X825000Y512500D02*
X835000Y502500D01*
X807500Y512500D02*
X825000D01*
X830000Y517500D02*
X840000Y507500D01*
X787500Y517500D02*
X830000D01*
X845000Y500728D02*
Y512500D01*
X840000Y500728D02*
Y507500D01*
X835000Y500728D02*
Y502500D01*
X635000Y460586D02*
Y497500D01*
X629414Y455000D02*
X635000Y460586D01*
X615000Y455000D02*
X629414D01*
X732500Y475000D02*
Y497500D01*
X605000Y502500D02*
X727500D01*
X732500Y497500D01*
X597500Y452500D02*
Y495000D01*
X605000Y502500D01*
X577500Y447500D02*
X592500D01*
X597500Y452500D01*
X894547Y674085D02*
Y675492D01*
X692500Y610000D02*
Y637500D01*
X890610Y673110D02*
Y675492D01*
X655000Y612500D02*
Y635000D01*
X888642Y674135D02*
Y675492D01*
X615000Y612500D02*
Y642500D01*
X907500Y682500D02*
X910000D01*
X904390Y679390D02*
X907500Y682500D01*
X904390Y675492D02*
Y679390D01*
X912264Y675492D02*
Y680236D01*
X910000Y682500D02*
X912264Y680236D01*
Y675492D02*
X914232D01*
X916201D01*
X904390Y670414D02*
Y675492D01*
X900453Y670414D02*
X904390D01*
X900453D02*
Y675492D01*
X922697Y687697D02*
Y690846D01*
X916201Y681201D02*
X922697Y687697D01*
X916201Y675492D02*
Y681201D01*
X900453Y675492D02*
Y687047D01*
X872303Y690846D02*
X874756Y688394D01*
X899106D01*
X900453Y687047D01*
X841914Y700000D02*
X847500Y694414D01*
X841914Y700000D02*
X862756D01*
X823086D02*
X841914D01*
X820650Y696850D02*
Y697564D01*
Y685000D02*
Y696850D01*
X820000Y697500D02*
X820650Y696850D01*
X777500Y697500D02*
X820000D01*
X820650Y697564D02*
X823086Y700000D01*
X871910Y690846D02*
X872303D01*
X862756Y700000D02*
X871910Y690846D01*
X835000Y667500D02*
X837500Y665000D01*
X835000Y667500D02*
Y682500D01*
X840000Y687500D01*
X847500D01*
X840000Y665000D02*
X840009D01*
X847500Y687500D02*
Y694414D01*
X777500Y685000D02*
X783858D01*
X775414Y687086D02*
X777500Y685000D01*
X775414Y687086D02*
Y695414D01*
X777500Y697500D01*
X630000Y677500D02*
X632500Y680000D01*
X572500Y677500D02*
X630000D01*
X632500Y680000D02*
Y687500D01*
X587500Y552500D02*
X615000D01*
X575000D02*
X587500D01*
X615000Y390000D02*
Y415000D01*
X602500Y377500D02*
X615000Y390000D01*
X567500Y377500D02*
X602500D01*
X567500Y390000D02*
X575000Y382500D01*
X567500Y390000D02*
Y532500D01*
X562500Y382500D02*
Y677500D01*
Y382500D02*
X567500Y377500D01*
X562500Y677500D02*
X572500Y687500D01*
X622500D01*
X567500Y532500D02*
X587500Y552500D01*
X615000Y415000D02*
X655000D01*
X692500D01*
Y405500D02*
Y415000D01*
X705500Y392500D02*
X747500D01*
X692500Y405500D02*
X705500Y392500D01*
X932500Y550000D02*
X972500D01*
X892500D02*
X932500D01*
X852500D02*
X892500D01*
X812500D02*
X852500D01*
X772500D02*
X812500D01*
X655000Y552500D02*
X656250Y551250D01*
X691250D01*
X692500Y550000D01*
X615000Y552500D02*
X655000D01*
X641000Y358997D02*
X644999D01*
X642999D01*
Y352999D01*
X649997D02*
X647998D01*
X646998Y353999D01*
Y355998D01*
X647998Y356998D01*
X649997D01*
X650997Y355998D01*
Y354999D01*
X646998D01*
X652996Y352999D02*
X655995D01*
X656995Y353999D01*
X655995Y354999D01*
X653996D01*
X652996Y355998D01*
X653996Y356998D01*
X656995D01*
X659994Y357998D02*
Y356998D01*
X658994D01*
X660993D01*
X659994D01*
Y353999D01*
X660993Y352999D01*
X673989Y358997D02*
X671990D01*
X672990D01*
Y353999D01*
X671990Y352999D01*
X670990D01*
X669991Y353999D01*
X675989Y352999D02*
X677988D01*
X676988D01*
Y356998D01*
X675989D01*
X682986Y351000D02*
X683986D01*
X684986Y352000D01*
Y356998D01*
X681987D01*
X680987Y355998D01*
Y353999D01*
X681987Y352999D01*
X684986D01*
X692983Y358997D02*
Y352999D01*
X695982D01*
X696982Y353999D01*
Y354999D01*
X695982Y355998D01*
X692983D01*
X695982D01*
X696982Y356998D01*
Y357998D01*
X695982Y358997D01*
X692983D01*
X699981Y352999D02*
X701980D01*
X702980Y353999D01*
Y355998D01*
X701980Y356998D01*
X699981D01*
X698981Y355998D01*
Y353999D01*
X699981Y352999D01*
X705979Y356998D02*
X707978D01*
X708978Y355998D01*
Y352999D01*
X705979D01*
X704979Y353999D01*
X705979Y354999D01*
X708978D01*
X710977Y356998D02*
Y352999D01*
Y354999D01*
X711977Y355998D01*
X712977Y356998D01*
X713976D01*
X720974Y358997D02*
Y352999D01*
X717975D01*
X716975Y353999D01*
Y355998D01*
X717975Y356998D01*
X720974D01*
D16*
X872303Y690846D02*
D03*
X922697D02*
D03*
D17*
X878799Y675492D02*
D03*
X880768D02*
D03*
X882736D02*
D03*
X884705D02*
D03*
X886673D02*
D03*
X888642D02*
D03*
X900453D02*
D03*
X902421D02*
D03*
X904390D02*
D03*
X906358D02*
D03*
X908327D02*
D03*
X910295D02*
D03*
X912264D02*
D03*
X914232D02*
D03*
X916201D02*
D03*
D18*
X890610D02*
D03*
X892579D02*
D03*
X894547D02*
D03*
X896516D02*
D03*
X898484D02*
D03*
D19*
X808307Y665000D02*
D03*
X815000D02*
D03*
Y654173D02*
D03*
X811654D02*
D03*
X808307D02*
D03*
D20*
X922500Y479272D02*
D03*
X927500D02*
D03*
X932500D02*
D03*
X937500D02*
D03*
X942500D02*
D03*
X947500D02*
D03*
X952500D02*
D03*
X957500D02*
D03*
X922500Y500728D02*
D03*
X927500D02*
D03*
X932500D02*
D03*
X937500D02*
D03*
X942500D02*
D03*
X947500D02*
D03*
X952500D02*
D03*
X957500D02*
D03*
X835000Y479272D02*
D03*
X840000D02*
D03*
X845000D02*
D03*
X850000D02*
D03*
X855000D02*
D03*
X860000D02*
D03*
X865000D02*
D03*
X870000D02*
D03*
X835000Y500728D02*
D03*
X840000D02*
D03*
X845000D02*
D03*
X850000D02*
D03*
X855000D02*
D03*
X860000D02*
D03*
X865000D02*
D03*
X870000D02*
D03*
D21*
X840000Y665000D02*
D03*
Y661834D02*
D03*
D22*
X791142Y685000D02*
D03*
X783858D02*
D03*
D23*
X820650D02*
D03*
Y681850D02*
D03*
D24*
X737717Y666969D02*
D03*
X740276D02*
D03*
X742835D02*
D03*
X735158D02*
D03*
X745394D02*
D03*
D25*
X724528Y677500D02*
D03*
X756024D02*
D03*
D26*
X735551D02*
D03*
X745000D02*
D03*
D27*
X847500Y680216D02*
D03*
Y687500D02*
D03*
D39*
X615000Y570000D02*
D03*
X692500D02*
D03*
Y590000D02*
D03*
Y610000D02*
D03*
X972500Y570000D02*
D03*
Y590000D02*
D03*
Y610000D02*
D03*
X932500Y570000D02*
D03*
Y590000D02*
D03*
Y610000D02*
D03*
X892500Y570000D02*
D03*
Y590000D02*
D03*
Y610000D02*
D03*
X852500Y570000D02*
D03*
Y590000D02*
D03*
Y610000D02*
D03*
X812500Y570000D02*
D03*
Y590000D02*
D03*
Y610000D02*
D03*
X772500Y570000D02*
D03*
Y590000D02*
D03*
Y610000D02*
D03*
X615000Y435000D02*
D03*
Y455000D02*
D03*
Y475000D02*
D03*
X655000Y435000D02*
D03*
Y455000D02*
D03*
Y475000D02*
D03*
X692500Y435000D02*
D03*
Y455000D02*
D03*
Y475000D02*
D03*
X732500Y570000D02*
D03*
Y435000D02*
D03*
Y455000D02*
D03*
Y475000D02*
D03*
X655000Y570000D02*
D03*
Y590000D02*
D03*
Y610000D02*
D03*
D50*
X957500Y500728D02*
X961692D01*
X965000Y497420D01*
Y452500D02*
Y497420D01*
X615000Y572500D02*
X655000D01*
X656250Y571250D01*
X870000Y500728D02*
X883228D01*
X895000Y512500D01*
X877500Y570000D02*
X892500D01*
X852500D02*
X877500D01*
Y592500D01*
X957500Y502402D02*
X980000Y524902D01*
X972500Y570000D02*
X980000D01*
Y524902D02*
Y570000D01*
X957500Y500728D02*
Y502402D01*
X855000Y665000D02*
Y672716D01*
X847500Y680216D02*
X848386D01*
X849656Y678946D01*
Y678060D02*
Y678946D01*
Y678060D02*
X855000Y672716D01*
X808307Y650000D02*
X814297D01*
X808307D02*
Y654173D01*
X814297Y650000D02*
X815000Y650703D01*
X745394Y660309D02*
Y666969D01*
Y660309D02*
X745703Y660000D01*
X802480D01*
X808307Y654173D02*
Y654764D01*
X807627Y655443D02*
X808307Y654764D01*
X807037Y655443D02*
X807627D01*
X802480Y660000D02*
X807037Y655443D01*
X815000Y650703D02*
Y654173D01*
X847500Y665000D02*
Y680216D01*
X844655Y662155D02*
X847500Y665000D01*
X840330Y662155D02*
X844655D01*
X840000Y661834D02*
X840009D01*
X840330Y662155D01*
X815000Y654173D02*
X832331D01*
X839991Y661834D01*
X840000D01*
X692500Y570000D02*
X732500D01*
X655000Y435000D02*
X692500D01*
X615000D02*
X655000D01*
X732500D02*
X743722D01*
X692500D02*
X732500D01*
X743722D02*
X762500Y453778D01*
Y505000D01*
X732500Y535000D02*
Y550000D01*
Y535000D02*
X762500Y505000D01*
X732500Y550000D02*
Y570000D01*
X691250Y571250D02*
X692500Y570000D01*
X656250Y571250D02*
X691250D01*
X732500Y570000D02*
X772500D01*
X812500D01*
X852500D01*
X892500D02*
X932500D01*
X972500D01*
D51*
X577500Y447500D02*
D03*
X578000Y670000D02*
D03*
X577500Y635000D02*
D03*
Y597500D02*
D03*
Y560000D02*
D03*
Y523000D02*
D03*
Y485000D02*
D03*
D52*
X615000Y550000D02*
D03*
X692500D02*
D03*
X972500D02*
D03*
X932500D02*
D03*
X892500D02*
D03*
X852500D02*
D03*
X812500D02*
D03*
X772500D02*
D03*
X615000Y415000D02*
D03*
X655000D02*
D03*
X692500D02*
D03*
X732500Y550000D02*
D03*
Y415000D02*
D03*
X655000Y550000D02*
D03*
D53*
X615000Y590000D02*
D03*
D54*
Y610000D02*
D03*
D55*
X655000Y687500D02*
D03*
X622500D02*
D03*
D56*
X665000D02*
D03*
X675000D02*
D03*
X685000D02*
D03*
X695000D02*
D03*
X705000D02*
D03*
X632500D02*
D03*
D57*
X976339Y438346D02*
D03*
Y341850D02*
D03*
X791496D02*
D03*
Y438346D02*
D03*
D58*
X805000Y340000D02*
D03*
X815000D02*
D03*
X825000D02*
D03*
X835000D02*
D03*
X845000D02*
D03*
X855000D02*
D03*
X865000D02*
D03*
X875000D02*
D03*
X885000D02*
D03*
X895000D02*
D03*
X905000D02*
D03*
X915000D02*
D03*
X925000D02*
D03*
X935000D02*
D03*
X945000D02*
D03*
X805000Y440000D02*
D03*
X815000D02*
D03*
X825000D02*
D03*
X835000D02*
D03*
X845000D02*
D03*
X855000D02*
D03*
X865000D02*
D03*
X875000D02*
D03*
X885000D02*
D03*
X895000D02*
D03*
X905000D02*
D03*
X915000D02*
D03*
X925000D02*
D03*
X935000D02*
D03*
D59*
X945000D02*
D03*
D60*
X732106Y667854D02*
D03*
X748445D02*
D03*
D61*
X732500Y590000D02*
D03*
Y610000D02*
D03*
D62*
X847500Y370000D02*
D03*
X857500Y420000D02*
D03*
X965000Y452500D02*
D03*
X882500Y467500D02*
D03*
X910000Y462500D02*
D03*
X895000Y512500D02*
D03*
X937500Y517500D02*
D03*
X930000Y515000D02*
D03*
X922500Y510000D02*
D03*
X910000Y497500D02*
D03*
X847500Y527500D02*
D03*
X857500Y522500D02*
D03*
X850000Y515000D02*
D03*
X772500Y510000D02*
D03*
X877500Y592500D02*
D03*
X937500Y526250D02*
D03*
X917500Y542500D02*
D03*
Y632500D02*
D03*
X947500Y527500D02*
D03*
X955000Y535000D02*
D03*
X870000Y522500D02*
D03*
X675000Y510000D02*
D03*
X670000Y617500D02*
D03*
X675000Y545000D02*
D03*
X670000Y635000D02*
D03*
X672500Y660000D02*
D03*
X655000Y665000D02*
D03*
X700000Y627500D02*
D03*
X602500Y525000D02*
D03*
X600000Y567500D02*
D03*
X590000Y582500D02*
D03*
X855000Y665000D02*
D03*
X935000Y655000D02*
D03*
Y675000D02*
D03*
X795000Y655000D02*
D03*
X882500Y685000D02*
D03*
X805000Y692500D02*
D03*
X865000Y660000D02*
D03*
X807500Y512500D02*
D03*
X787500Y517500D02*
D03*
X635000Y497500D02*
D03*
X575000Y382500D02*
D03*
M02*
