G04*
G04 #@! TF.GenerationSoftware,Altium Limited,Altium Designer,20.0.2 (26)*
G04*
G04 Layer_Physical_Order=2*
G04 Layer_Color=16711680*
%FSLAX25Y25*%
%MOIN*%
G70*
G01*
G75*
%ADD15C,0.01000*%
%ADD39C,0.09843*%
%ADD50C,0.01200*%
%ADD51C,0.06000*%
%ADD52O,0.09843X0.09843*%
%ADD53C,0.09042*%
%ADD54C,0.09343*%
%ADD55R,0.05906X0.05906*%
%ADD56C,0.05906*%
%ADD57C,0.11811*%
%ADD58C,0.07874*%
%ADD59R,0.07874X0.07874*%
%ADD60C,0.01656*%
%ADD61C,0.09843*%
%ADD62C,0.05000*%
D15*
X805000Y340000D02*
X835000Y370000D01*
X847500D01*
X845000Y432500D02*
X857500Y420000D01*
X845000Y432500D02*
Y440000D01*
X895000Y340000D02*
X910000Y355000D01*
Y462500D01*
X895000Y440000D02*
Y455000D01*
X882500Y467500D02*
X895000Y455000D01*
X905000Y527500D02*
X922500Y510000D01*
X885000Y527500D02*
X905000D01*
X867500Y545000D02*
X885000Y527500D01*
X867500Y545000D02*
Y572500D01*
X862500Y577500D02*
X867500Y572500D01*
X800000Y577500D02*
X862500D01*
X787500Y590000D02*
X800000Y577500D01*
X772500Y590000D02*
X787500D01*
X929343Y515000D02*
X930000D01*
X926843Y517500D02*
X929343Y515000D01*
X922500Y517500D02*
X926843D01*
X885000Y532500D02*
X907500D01*
X922500Y517500D01*
X870000Y547500D02*
Y580000D01*
Y547500D02*
X885000Y532500D01*
X845000Y582500D02*
X867500D01*
X870000Y580000D01*
X812500Y590000D02*
X837500D01*
X845000Y582500D01*
X936843Y517500D02*
X937500D01*
X934343Y520000D02*
X936843Y517500D01*
X925000Y520000D02*
X934343D01*
X885000Y537500D02*
X907500D01*
X925000Y520000D01*
X877500Y545000D02*
X885000Y537500D01*
X877500Y545000D02*
Y580000D01*
X852500Y590000D02*
X867500D01*
X877500Y580000D01*
X902500Y497500D02*
X910000D01*
X862500Y537500D02*
X902500Y497500D01*
X753086Y537500D02*
X862500D01*
X750000Y540586D02*
X753086Y537500D01*
X750000Y540586D02*
Y585000D01*
X732500Y590000D02*
X745000D01*
X750000Y585000D01*
X640586Y527500D02*
X847500D01*
X630000Y538086D02*
X640586Y527500D01*
X855000Y535000D02*
X867500Y522500D01*
X717500Y535000D02*
X855000D01*
X707500Y545000D02*
X717500Y535000D01*
X867500Y522500D02*
X870000D01*
X692500Y590000D02*
X707500Y575000D01*
Y545000D02*
Y575000D01*
X655000Y592500D02*
X665000D01*
X847500Y532500D02*
X857500Y522500D01*
X675586Y532500D02*
X847500D01*
X667500Y540586D02*
X675586Y532500D01*
X820000Y515000D02*
X850000D01*
X760000Y455000D02*
X820000Y515000D01*
X746809Y510000D02*
X772500D01*
X692500Y455691D02*
X746809Y510000D01*
X923750Y526250D02*
X937500D01*
X910000Y540000D02*
X923750Y526250D01*
X910000Y540000D02*
Y587500D01*
X907500Y590000D02*
X910000Y587500D01*
X892500Y590000D02*
X907500D01*
X917500Y542500D02*
Y632500D01*
X947500Y527500D02*
Y587500D01*
X932500Y590000D02*
X945000D01*
X947500Y587500D01*
X955000Y535000D02*
Y590000D01*
X972500D01*
X692500Y475000D02*
Y490000D01*
X675000Y507500D02*
X692500Y490000D01*
X675000Y507500D02*
Y510000D01*
X670000Y612500D02*
Y617500D01*
Y612500D02*
X675000Y607500D01*
Y545000D02*
Y607500D01*
X672500Y659243D02*
Y660000D01*
X670000Y656743D02*
X672500Y659243D01*
X670000Y635000D02*
Y656743D01*
X677500Y665000D02*
X732500Y610000D01*
X655000Y665000D02*
X677500D01*
X595000Y627500D02*
X700000D01*
X577500Y610000D02*
X595000Y627500D01*
X665000Y592500D02*
X667500Y590000D01*
Y540586D02*
Y590000D01*
X602500Y525000D02*
Y565000D01*
X600000Y567500D02*
X602500Y565000D01*
X590000Y497500D02*
Y582500D01*
X577500Y485000D02*
X590000Y497500D01*
X935000Y655000D02*
Y675000D01*
X952500Y647500D02*
X972500Y627500D01*
X877500Y647500D02*
X952500D01*
X865000Y660000D02*
X877500Y647500D01*
X935000Y340000D02*
Y440000D01*
X557500Y485000D02*
Y682500D01*
Y485000D02*
X575000Y467500D01*
X557500Y682500D02*
X572500Y697500D01*
X840000Y610000D02*
X852500D01*
X795000Y655000D02*
X840000Y610000D01*
X577500Y597500D02*
Y610000D01*
X615000Y592500D02*
X627500D01*
X630000Y538086D02*
Y590000D01*
X627500Y592500D02*
X630000Y590000D01*
X865000Y702500D02*
X882500Y685000D01*
X815000Y702500D02*
X865000D01*
X805000Y692500D02*
X815000Y702500D01*
X972500Y610000D02*
Y627500D01*
X732500Y455000D02*
X760000D01*
X797500Y522500D02*
X807500Y512500D01*
X652500Y522500D02*
X797500D01*
X635000Y505000D02*
X652500Y522500D01*
X667500Y517500D02*
X787500D01*
X692500Y455000D02*
Y455691D01*
X667500Y467500D02*
Y517500D01*
X655000Y455000D02*
X667500Y467500D01*
X635000Y497500D02*
Y505000D01*
X647500Y467500D02*
X655000Y475000D01*
X575000Y467500D02*
X647500D01*
X675000Y687500D02*
Y696914D01*
X674414Y697500D02*
X675000Y696914D01*
X572500Y697500D02*
X674414D01*
X570000Y475000D02*
X615000D01*
X560000Y485000D02*
X570000Y475000D01*
X560000Y485000D02*
Y680000D01*
X665000Y687500D02*
Y694414D01*
X664414Y695000D02*
X665000Y694414D01*
X575000Y695000D02*
X664414D01*
X560000Y680000D02*
X575000Y695000D01*
X812500Y610000D02*
Y627500D01*
X782500Y657500D02*
X812500Y627500D01*
X727500Y657500D02*
X782500D01*
X578000Y670000D02*
X715000D01*
X727500Y657500D01*
X575000Y382500D02*
X727500D01*
X732500Y387500D01*
Y415000D01*
X695000Y687500D02*
X705000D01*
D39*
X615000Y570000D02*
D03*
X692500D02*
D03*
Y590000D02*
D03*
Y610000D02*
D03*
X972500Y570000D02*
D03*
Y590000D02*
D03*
Y610000D02*
D03*
X932500Y570000D02*
D03*
Y590000D02*
D03*
Y610000D02*
D03*
X892500Y570000D02*
D03*
Y590000D02*
D03*
Y610000D02*
D03*
X852500Y570000D02*
D03*
Y590000D02*
D03*
Y610000D02*
D03*
X812500Y570000D02*
D03*
Y590000D02*
D03*
Y610000D02*
D03*
X772500Y570000D02*
D03*
Y590000D02*
D03*
Y610000D02*
D03*
X615000Y435000D02*
D03*
Y455000D02*
D03*
Y475000D02*
D03*
X655000Y435000D02*
D03*
Y455000D02*
D03*
Y475000D02*
D03*
X692500Y435000D02*
D03*
Y455000D02*
D03*
Y475000D02*
D03*
X732500Y570000D02*
D03*
Y435000D02*
D03*
Y455000D02*
D03*
Y475000D02*
D03*
X655000Y570000D02*
D03*
Y590000D02*
D03*
Y610000D02*
D03*
D50*
X945000Y340000D02*
X965000Y360000D01*
Y452500D01*
X865000Y542500D02*
X895000Y512500D01*
X865000Y542500D02*
Y557500D01*
X852500Y570000D02*
X865000Y557500D01*
X877500Y592500D02*
Y617500D01*
X855000Y640000D02*
X877500Y617500D01*
X855000Y640000D02*
Y665000D01*
D51*
X577500Y447500D02*
D03*
X578000Y670000D02*
D03*
X577500Y635000D02*
D03*
Y597500D02*
D03*
Y560000D02*
D03*
Y523000D02*
D03*
Y485000D02*
D03*
D52*
X615000Y550000D02*
D03*
X692500D02*
D03*
X972500D02*
D03*
X932500D02*
D03*
X892500D02*
D03*
X852500D02*
D03*
X812500D02*
D03*
X772500D02*
D03*
X615000Y415000D02*
D03*
X655000D02*
D03*
X692500D02*
D03*
X732500Y550000D02*
D03*
Y415000D02*
D03*
X655000Y550000D02*
D03*
D53*
X615000Y590000D02*
D03*
D54*
Y610000D02*
D03*
D55*
X655000Y687500D02*
D03*
X622500D02*
D03*
D56*
X665000D02*
D03*
X675000D02*
D03*
X685000D02*
D03*
X695000D02*
D03*
X705000D02*
D03*
X632500D02*
D03*
D57*
X976339Y438346D02*
D03*
Y341850D02*
D03*
X791496D02*
D03*
Y438346D02*
D03*
D58*
X805000Y340000D02*
D03*
X815000D02*
D03*
X825000D02*
D03*
X835000D02*
D03*
X845000D02*
D03*
X855000D02*
D03*
X865000D02*
D03*
X875000D02*
D03*
X885000D02*
D03*
X895000D02*
D03*
X905000D02*
D03*
X915000D02*
D03*
X925000D02*
D03*
X935000D02*
D03*
X945000D02*
D03*
X805000Y440000D02*
D03*
X815000D02*
D03*
X825000D02*
D03*
X835000D02*
D03*
X845000D02*
D03*
X855000D02*
D03*
X865000D02*
D03*
X875000D02*
D03*
X885000D02*
D03*
X895000D02*
D03*
X905000D02*
D03*
X915000D02*
D03*
X925000D02*
D03*
X935000D02*
D03*
D59*
X945000D02*
D03*
D60*
X732106Y667854D02*
D03*
X748445D02*
D03*
D61*
X732500Y590000D02*
D03*
Y610000D02*
D03*
D62*
X847500Y370000D02*
D03*
X857500Y420000D02*
D03*
X965000Y452500D02*
D03*
X882500Y467500D02*
D03*
X910000Y462500D02*
D03*
X895000Y512500D02*
D03*
X937500Y517500D02*
D03*
X930000Y515000D02*
D03*
X922500Y510000D02*
D03*
X910000Y497500D02*
D03*
X847500Y527500D02*
D03*
X857500Y522500D02*
D03*
X850000Y515000D02*
D03*
X772500Y510000D02*
D03*
X877500Y592500D02*
D03*
X937500Y526250D02*
D03*
X917500Y542500D02*
D03*
Y632500D02*
D03*
X947500Y527500D02*
D03*
X955000Y535000D02*
D03*
X870000Y522500D02*
D03*
X675000Y510000D02*
D03*
X670000Y617500D02*
D03*
X675000Y545000D02*
D03*
X670000Y635000D02*
D03*
X672500Y660000D02*
D03*
X655000Y665000D02*
D03*
X700000Y627500D02*
D03*
X602500Y525000D02*
D03*
X600000Y567500D02*
D03*
X590000Y582500D02*
D03*
X855000Y665000D02*
D03*
X935000Y655000D02*
D03*
Y675000D02*
D03*
X795000Y655000D02*
D03*
X882500Y685000D02*
D03*
X805000Y692500D02*
D03*
X865000Y660000D02*
D03*
X807500Y512500D02*
D03*
X787500Y517500D02*
D03*
X635000Y497500D02*
D03*
X575000Y382500D02*
D03*
M02*
