G04*
G04 #@! TF.GenerationSoftware,Altium Limited,Altium Designer,20.0.2 (26)*
G04*
G04 Layer_Color=16711935*
%FSLAX25Y25*%
%MOIN*%
G70*
G01*
G75*
%ADD36C,0.06800*%
%ADD37O,0.10642X0.10642*%
%ADD38C,0.10642*%
%ADD39C,0.09843*%
%ADD40C,0.10143*%
%ADD41R,0.06706X0.06706*%
%ADD42C,0.06706*%
%ADD43C,0.12611*%
%ADD44C,0.08674*%
%ADD45R,0.08674X0.08674*%
%ADD46C,0.02456*%
%ADD47C,0.10642*%
%ADD48C,0.10443*%
%ADD49C,0.05800*%
D36*
X577500Y447500D02*
D03*
X578000Y670000D02*
D03*
X577500Y635000D02*
D03*
Y597500D02*
D03*
Y560000D02*
D03*
Y523000D02*
D03*
Y485000D02*
D03*
D37*
X615000Y550000D02*
D03*
X692500D02*
D03*
X972500D02*
D03*
X932500D02*
D03*
X892500D02*
D03*
X852500D02*
D03*
X812500D02*
D03*
X772500D02*
D03*
X615000Y415000D02*
D03*
X655000D02*
D03*
X692500D02*
D03*
X732500Y550000D02*
D03*
Y415000D02*
D03*
X655000Y550000D02*
D03*
D38*
X615000Y570000D02*
D03*
X692500D02*
D03*
Y590000D02*
D03*
Y610000D02*
D03*
X972500Y570000D02*
D03*
Y590000D02*
D03*
Y610000D02*
D03*
X932500Y570000D02*
D03*
Y590000D02*
D03*
Y610000D02*
D03*
X892500Y570000D02*
D03*
Y590000D02*
D03*
Y610000D02*
D03*
X852500Y570000D02*
D03*
Y590000D02*
D03*
Y610000D02*
D03*
X812500Y570000D02*
D03*
Y590000D02*
D03*
Y610000D02*
D03*
X772500Y570000D02*
D03*
Y590000D02*
D03*
Y610000D02*
D03*
X615000Y435000D02*
D03*
Y455000D02*
D03*
Y475000D02*
D03*
X655000Y435000D02*
D03*
Y455000D02*
D03*
Y475000D02*
D03*
X692500Y435000D02*
D03*
Y455000D02*
D03*
Y475000D02*
D03*
X732500Y570000D02*
D03*
Y435000D02*
D03*
Y455000D02*
D03*
Y475000D02*
D03*
X655000Y570000D02*
D03*
Y590000D02*
D03*
Y610000D02*
D03*
D39*
X615000Y590000D02*
D03*
D40*
Y610000D02*
D03*
D41*
X655000Y687500D02*
D03*
X622500D02*
D03*
D42*
X665000D02*
D03*
X675000D02*
D03*
X685000D02*
D03*
X695000D02*
D03*
X705000D02*
D03*
X632500D02*
D03*
D43*
X976339Y438346D02*
D03*
Y341850D02*
D03*
X791496D02*
D03*
Y438346D02*
D03*
D44*
X805000Y340000D02*
D03*
X815000D02*
D03*
X825000D02*
D03*
X835000D02*
D03*
X845000D02*
D03*
X855000D02*
D03*
X865000D02*
D03*
X875000D02*
D03*
X885000D02*
D03*
X895000D02*
D03*
X905000D02*
D03*
X915000D02*
D03*
X925000D02*
D03*
X935000D02*
D03*
X945000D02*
D03*
X805000Y440000D02*
D03*
X815000D02*
D03*
X825000D02*
D03*
X835000D02*
D03*
X845000D02*
D03*
X855000D02*
D03*
X865000D02*
D03*
X875000D02*
D03*
X885000D02*
D03*
X895000D02*
D03*
X905000D02*
D03*
X915000D02*
D03*
X925000D02*
D03*
X935000D02*
D03*
D45*
X945000D02*
D03*
D46*
X732106Y667854D02*
D03*
X748445D02*
D03*
D47*
X732500Y590000D02*
D03*
D48*
Y610000D02*
D03*
D49*
X847500Y370000D02*
D03*
X857500Y420000D02*
D03*
X965000Y452500D02*
D03*
X882500Y467500D02*
D03*
X910000Y462500D02*
D03*
X895000Y512500D02*
D03*
X937500Y517500D02*
D03*
X930000Y515000D02*
D03*
X922500Y510000D02*
D03*
X910000Y497500D02*
D03*
X847500Y527500D02*
D03*
X857500Y522500D02*
D03*
X850000Y515000D02*
D03*
X772500Y510000D02*
D03*
X877500Y592500D02*
D03*
X937500Y526250D02*
D03*
X917500Y542500D02*
D03*
Y632500D02*
D03*
X947500Y527500D02*
D03*
X955000Y535000D02*
D03*
X870000Y522500D02*
D03*
X675000Y510000D02*
D03*
X670000Y617500D02*
D03*
X675000Y545000D02*
D03*
X670000Y635000D02*
D03*
X672500Y660000D02*
D03*
X655000Y665000D02*
D03*
X700000Y627500D02*
D03*
X602500Y525000D02*
D03*
X600000Y567500D02*
D03*
X590000Y582500D02*
D03*
X855000Y665000D02*
D03*
X935000Y655000D02*
D03*
Y675000D02*
D03*
X795000Y655000D02*
D03*
X882500Y685000D02*
D03*
X805000Y692500D02*
D03*
X865000Y660000D02*
D03*
X807500Y512500D02*
D03*
X787500Y517500D02*
D03*
X635000Y497500D02*
D03*
X575000Y382500D02*
D03*
M02*
