M48
;Layer_Color=9474304
;FILE_FORMAT=4:4
METRIC,LZ
;TYPE=PLATED
T1F00S00C0.7112
T2F00S00C0.7620
T3F00S00C0.8000
T5F00S00C0.9000
T6F00S00C1.0200
;TYPE=NON_PLATED
T7F00S00C0.3444
T8F00S00C2.2888
%
T01
X014605Y0097155
X0215265Y009398
X0217805Y010668
X0224155Y0118745
X023114Y0117475
X024511Y0114935
X0238125Y0131445
Y01336675
X0240665Y0133985
X024257Y013589
X023622Y013081
X0234315Y012954
X023114Y0126365
X022733Y0130175
X022098Y0132715
X0217805
X0215265Y0133985
X02159Y013081
X0205105Y0130175
X0200025Y0131445
X0233045Y0137795
X0222885Y0150495
X0196215Y012954
X017145
Y013843
X017018Y0156845
X016129Y0126365
X0153035Y013335
X01524Y0144145
X014986Y0147955
X017018Y016129
X0170815Y016764
X016637Y016891
X01778Y0159385
X020193Y016637
X020447Y0175895
X021717Y016891
X021971Y016764
X0224155Y017399
X023749Y017145
Y016637
X0233045Y0160655
T02
X0146685Y0113665
Y012319
Y0132842
Y014224
Y0151765
Y016129
X0146812Y017018
T03
X015621Y011049
Y011557
X016637
Y011049
X0175895
Y011557
X0186055
Y011049
X0247015Y014478
Y014986
Y015494
X0236855
Y014986
Y014478
X0226695
Y014986
Y015494
X0216535
Y014986
Y014478
X0206375
Y014986
Y015494
X0196215
Y014986
Y014478
X0186055
Y014986
Y015494
X0175895
Y014986
Y014478
X016637
Y014986
Y015494
Y012065
X0175895
X0186055
X015621
Y014478
Y014986
Y015494
T05
X0158115Y0174625
X0160655
X016637
X016891
X017145
X017399
X017653
X017907
T06
X020447Y008636
X020701
X020955
X021209
X021463
X021717
X021971
X022225
X022479
X022733
X022987
X023241
X023495
X023749
Y011176
X023495
X023241
X022987
X022733
X022479
X022225
X021971
X021717
X021463
X021209
X020955
X020701
X020447
X024003
Y008636
T07
X0185955Y0169635
X0190105
T08
X020104Y008683
Y011134
X024799
Y008683
M30
