G04*
G04 #@! TF.GenerationSoftware,Altium Limited,Altium Designer,20.0.2 (26)*
G04*
G04 Layer_Color=16711935*
%FSLAX25Y25*%
%MOIN*%
G70*
G01*
G75*
%ADD10C,0.00787*%
%ADD13C,0.00394*%
G36*
X840000Y666685D02*
X838026D01*
X838030Y666681D01*
X838046Y666665D01*
X838065Y666639D01*
X838091Y666604D01*
X838126Y666562D01*
X838161Y666512D01*
X838203Y666454D01*
X838241Y666389D01*
Y666385D01*
X838245Y666381D01*
X838260Y666358D01*
X838280Y666324D01*
X838303Y666281D01*
X838330Y666231D01*
X838353Y666178D01*
X838380Y666120D01*
X838403Y666066D01*
X838099D01*
Y666070D01*
X838095Y666078D01*
X838088Y666093D01*
X838076Y666109D01*
X838065Y666132D01*
X838053Y666158D01*
X838019Y666220D01*
X837976Y666289D01*
X837926Y666366D01*
X837869Y666443D01*
X837807Y666516D01*
X837803Y666519D01*
X837800Y666523D01*
X837777Y666546D01*
X837742Y666581D01*
X837700Y666623D01*
X837646Y666669D01*
X837589Y666715D01*
X837527Y666757D01*
X837466Y666792D01*
Y666996D01*
X840000D01*
Y666685D01*
D02*
G37*
G36*
Y665218D02*
X839478Y664884D01*
X839474D01*
X839466Y664876D01*
X839455Y664868D01*
X839439Y664861D01*
X839401Y664834D01*
X839351Y664799D01*
X839293Y664761D01*
X839236Y664718D01*
X839182Y664680D01*
X839132Y664642D01*
X839128Y664638D01*
X839113Y664626D01*
X839090Y664607D01*
X839063Y664588D01*
X839009Y664530D01*
X838982Y664503D01*
X838963Y664473D01*
X838959Y664469D01*
X838956Y664461D01*
X838948Y664446D01*
X838936Y664427D01*
X838913Y664381D01*
X838894Y664323D01*
Y664319D01*
X838890Y664312D01*
Y664296D01*
X838886Y664277D01*
X838883Y664250D01*
Y664219D01*
X838879Y664181D01*
Y663751D01*
X840000D01*
Y663417D01*
X837477D01*
Y664588D01*
X837481Y664619D01*
Y664649D01*
X837485Y664726D01*
X837492Y664807D01*
X837508Y664891D01*
X837523Y664972D01*
X837535Y665010D01*
X837546Y665045D01*
Y665049D01*
X837550Y665053D01*
X837558Y665076D01*
X837577Y665106D01*
X837604Y665145D01*
X837635Y665191D01*
X837677Y665237D01*
X837727Y665283D01*
X837788Y665325D01*
X837796Y665329D01*
X837819Y665341D01*
X837854Y665360D01*
X837900Y665379D01*
X837957Y665398D01*
X838022Y665417D01*
X838091Y665429D01*
X838168Y665433D01*
X838172D01*
X838180D01*
X838195D01*
X838214Y665429D01*
X838237D01*
X838264Y665425D01*
X838326Y665410D01*
X838399Y665390D01*
X838472Y665360D01*
X838548Y665314D01*
X838587Y665287D01*
X838622Y665256D01*
X838629Y665248D01*
X838637Y665237D01*
X838652Y665225D01*
X838664Y665206D01*
X838683Y665183D01*
X838698Y665156D01*
X838717Y665126D01*
X838737Y665091D01*
X838756Y665049D01*
X838775Y665006D01*
X838794Y664957D01*
X838813Y664907D01*
X838829Y664849D01*
X838840Y664788D01*
X838852Y664722D01*
X838856Y664730D01*
X838863Y664745D01*
X838875Y664768D01*
X838890Y664795D01*
X838933Y664861D01*
X838956Y664895D01*
X838979Y664922D01*
X838986Y664930D01*
X839002Y664949D01*
X839032Y664976D01*
X839071Y665010D01*
X839121Y665053D01*
X839178Y665099D01*
X839244Y665149D01*
X839316Y665199D01*
X840000Y665636D01*
Y665218D01*
D02*
G37*
G36*
X786386Y684996D02*
X786421D01*
X786459Y684992D01*
X786506Y684985D01*
X786552Y684981D01*
X786659Y684958D01*
X786770Y684931D01*
X786878Y684889D01*
X786932Y684866D01*
X786982Y684835D01*
X786985Y684831D01*
X786993Y684827D01*
X787005Y684816D01*
X787024Y684804D01*
X787070Y684766D01*
X787124Y684712D01*
X787189Y684647D01*
X787250Y684562D01*
X787316Y684466D01*
X787369Y684355D01*
Y684351D01*
X787373Y684340D01*
X787381Y684324D01*
X787389Y684301D01*
X787400Y684270D01*
X787412Y684236D01*
X787423Y684198D01*
X787435Y684151D01*
X787446Y684105D01*
X787458Y684052D01*
X787481Y683936D01*
X787496Y683813D01*
X787500Y683679D01*
Y683675D01*
Y683660D01*
Y683641D01*
X787496Y683614D01*
Y683579D01*
X787492Y683537D01*
X787489Y683495D01*
X787481Y683445D01*
X787462Y683337D01*
X787439Y683222D01*
X787400Y683103D01*
X787350Y682992D01*
Y682988D01*
X787343Y682980D01*
X787335Y682965D01*
X787323Y682942D01*
X787308Y682919D01*
X787289Y682892D01*
X787239Y682827D01*
X787181Y682754D01*
X787108Y682681D01*
X787020Y682608D01*
X786924Y682546D01*
X786920D01*
X786912Y682539D01*
X786897Y682531D01*
X786874Y682523D01*
X786851Y682512D01*
X786820Y682496D01*
X786782Y682485D01*
X786743Y682470D01*
X786701Y682454D01*
X786655Y682443D01*
X786552Y682416D01*
X786436Y682400D01*
X786313Y682393D01*
X786275D01*
X786248Y682397D01*
X786217Y682400D01*
X786179Y682404D01*
X786137Y682408D01*
X786091Y682416D01*
X785991Y682439D01*
X785883Y682473D01*
X785830Y682496D01*
X785776Y682523D01*
X785726Y682554D01*
X785676Y682588D01*
X785672Y682592D01*
X785665Y682596D01*
X785653Y682608D01*
X785634Y682623D01*
X785615Y682642D01*
X785588Y682669D01*
X785561Y682696D01*
X785534Y682727D01*
X785503Y682765D01*
X785476Y682803D01*
X785446Y682850D01*
X785415Y682900D01*
X785388Y682949D01*
X785361Y683007D01*
X785315Y683130D01*
X785645Y683207D01*
Y683203D01*
X785649Y683195D01*
X785653Y683180D01*
X785661Y683161D01*
X785672Y683138D01*
X785684Y683111D01*
X785711Y683053D01*
X785745Y682988D01*
X785791Y682919D01*
X785841Y682857D01*
X785903Y682803D01*
X785910Y682800D01*
X785933Y682784D01*
X785968Y682765D01*
X786018Y682738D01*
X786075Y682715D01*
X786148Y682696D01*
X786229Y682681D01*
X786321Y682677D01*
X786348D01*
X786367Y682681D01*
X786394D01*
X786421Y682685D01*
X786490Y682696D01*
X786567Y682711D01*
X786648Y682738D01*
X786728Y682773D01*
X786805Y682819D01*
X786809D01*
X786813Y682827D01*
X786836Y682846D01*
X786870Y682876D01*
X786912Y682919D01*
X786955Y682972D01*
X787001Y683034D01*
X787043Y683111D01*
X787078Y683195D01*
Y683199D01*
X787081Y683207D01*
X787085Y683218D01*
X787089Y683238D01*
X787097Y683257D01*
X787101Y683284D01*
X787116Y683345D01*
X787131Y683418D01*
X787143Y683499D01*
X787151Y683587D01*
X787154Y683679D01*
Y683683D01*
Y683694D01*
Y683710D01*
Y683733D01*
X787151Y683760D01*
Y683794D01*
X787147Y683829D01*
X787143Y683867D01*
X787131Y683956D01*
X787116Y684052D01*
X787093Y684148D01*
X787062Y684240D01*
Y684243D01*
X787058Y684251D01*
X787051Y684263D01*
X787043Y684278D01*
X787024Y684324D01*
X786993Y684374D01*
X786951Y684436D01*
X786901Y684493D01*
X786843Y684551D01*
X786774Y684601D01*
X786770D01*
X786767Y684605D01*
X786755Y684612D01*
X786740Y684620D01*
X786697Y684635D01*
X786644Y684658D01*
X786582Y684678D01*
X786509Y684697D01*
X786429Y684712D01*
X786344Y684716D01*
X786317D01*
X786298Y684712D01*
X786275D01*
X786244Y684708D01*
X786179Y684697D01*
X786106Y684678D01*
X786025Y684647D01*
X785949Y684608D01*
X785872Y684555D01*
X785868Y684551D01*
X785864Y684547D01*
X785841Y684524D01*
X785807Y684485D01*
X785764Y684436D01*
X785722Y684366D01*
X785676Y684286D01*
X785638Y684186D01*
X785607Y684075D01*
X785273Y684159D01*
Y684163D01*
X785277Y684178D01*
X785284Y684198D01*
X785292Y684228D01*
X785307Y684259D01*
X785323Y684301D01*
X785338Y684343D01*
X785361Y684389D01*
X785411Y684493D01*
X785480Y684597D01*
X785557Y684697D01*
X785603Y684743D01*
X785653Y684785D01*
X785657Y684789D01*
X785665Y684793D01*
X785680Y684804D01*
X785703Y684820D01*
X785730Y684835D01*
X785760Y684854D01*
X785795Y684873D01*
X785837Y684893D01*
X785883Y684912D01*
X785933Y684931D01*
X785991Y684950D01*
X786049Y684966D01*
X786175Y684992D01*
X786244Y684996D01*
X786317Y685000D01*
X786356D01*
X786386Y684996D01*
D02*
G37*
G36*
X785031Y684954D02*
Y684939D01*
Y684915D01*
X785027Y684889D01*
X785023Y684858D01*
X785019Y684823D01*
X785008Y684785D01*
X784996Y684747D01*
Y684743D01*
X784993Y684739D01*
X784985Y684716D01*
X784970Y684685D01*
X784946Y684639D01*
X784920Y684589D01*
X784881Y684531D01*
X784843Y684474D01*
X784793Y684412D01*
Y684409D01*
X784785Y684405D01*
X784766Y684382D01*
X784735Y684347D01*
X784689Y684301D01*
X784631Y684247D01*
X784562Y684182D01*
X784478Y684109D01*
X784386Y684028D01*
X784382Y684025D01*
X784367Y684013D01*
X784347Y683998D01*
X784320Y683971D01*
X784286Y683944D01*
X784247Y683910D01*
X784163Y683837D01*
X784071Y683748D01*
X783979Y683660D01*
X783933Y683618D01*
X783894Y683575D01*
X783860Y683533D01*
X783829Y683495D01*
Y683491D01*
X783821Y683487D01*
X783814Y683476D01*
X783806Y683460D01*
X783783Y683422D01*
X783756Y683372D01*
X783729Y683314D01*
X783706Y683253D01*
X783691Y683184D01*
X783683Y683118D01*
Y683115D01*
Y683111D01*
X783687Y683088D01*
X783691Y683053D01*
X783698Y683011D01*
X783718Y682961D01*
X783741Y682911D01*
X783771Y682857D01*
X783817Y682807D01*
X783825Y682803D01*
X783841Y682788D01*
X783871Y682769D01*
X783910Y682742D01*
X783960Y682719D01*
X784017Y682700D01*
X784086Y682685D01*
X784163Y682681D01*
X784186D01*
X784201Y682685D01*
X784240Y682688D01*
X784290Y682696D01*
X784347Y682715D01*
X784409Y682738D01*
X784466Y682773D01*
X784520Y682819D01*
X784524Y682827D01*
X784539Y682842D01*
X784562Y682873D01*
X784586Y682915D01*
X784612Y682969D01*
X784631Y683030D01*
X784647Y683103D01*
X784655Y683188D01*
X784973Y683153D01*
Y683149D01*
Y683138D01*
X784970Y683118D01*
X784966Y683095D01*
X784958Y683065D01*
X784954Y683030D01*
X784931Y682953D01*
X784900Y682865D01*
X784858Y682777D01*
X784800Y682688D01*
X784770Y682650D01*
X784731Y682612D01*
X784727Y682608D01*
X784720Y682604D01*
X784708Y682592D01*
X784693Y682581D01*
X784670Y682569D01*
X784643Y682550D01*
X784612Y682535D01*
X784578Y682515D01*
X784539Y682500D01*
X784497Y682481D01*
X784447Y682466D01*
X784397Y682454D01*
X784282Y682431D01*
X784221Y682427D01*
X784155Y682423D01*
X784121D01*
X784094Y682427D01*
X784063Y682431D01*
X784029Y682435D01*
X783990Y682439D01*
X783948Y682450D01*
X783856Y682473D01*
X783760Y682508D01*
X783710Y682531D01*
X783664Y682558D01*
X783622Y682592D01*
X783579Y682627D01*
X783576Y682631D01*
X783572Y682635D01*
X783560Y682646D01*
X783545Y682661D01*
X783530Y682685D01*
X783510Y682708D01*
X783472Y682765D01*
X783433Y682838D01*
X783399Y682923D01*
X783372Y683019D01*
X783368Y683072D01*
X783364Y683126D01*
Y683134D01*
Y683153D01*
X783368Y683184D01*
X783372Y683222D01*
X783380Y683268D01*
X783391Y683318D01*
X783407Y683372D01*
X783430Y683426D01*
X783433Y683433D01*
X783441Y683453D01*
X783457Y683479D01*
X783480Y683518D01*
X783506Y683564D01*
X783541Y683618D01*
X783587Y683671D01*
X783637Y683733D01*
X783645Y683741D01*
X783664Y683764D01*
X783698Y683798D01*
X783721Y683821D01*
X783748Y683848D01*
X783779Y683879D01*
X783817Y683913D01*
X783856Y683948D01*
X783898Y683990D01*
X783944Y684032D01*
X783998Y684078D01*
X784052Y684125D01*
X784113Y684178D01*
X784117Y684182D01*
X784125Y684190D01*
X784140Y684201D01*
X784159Y684217D01*
X784205Y684255D01*
X784263Y684305D01*
X784320Y684359D01*
X784382Y684412D01*
X784432Y684459D01*
X784451Y684478D01*
X784470Y684497D01*
X784474Y684501D01*
X784482Y684512D01*
X784497Y684528D01*
X784516Y684551D01*
X784559Y684601D01*
X784601Y684662D01*
X783360D01*
Y684958D01*
X785031D01*
Y684954D01*
D02*
G37*
G36*
X819916Y687584D02*
X819947Y687580D01*
X819978Y687576D01*
X820016Y687569D01*
X820054Y687557D01*
X820143Y687530D01*
X820193Y687511D01*
X820239Y687484D01*
X820285Y687457D01*
X820331Y687426D01*
X820377Y687388D01*
X820423Y687346D01*
X820427Y687342D01*
X820435Y687334D01*
X820442Y687323D01*
X820458Y687303D01*
X820477Y687281D01*
X820496Y687250D01*
X820515Y687215D01*
X820534Y687181D01*
X820557Y687138D01*
X820577Y687092D01*
X820596Y687042D01*
X820615Y686989D01*
X820630Y686931D01*
X820638Y686870D01*
X820646Y686804D01*
X820650Y686739D01*
Y686708D01*
X820646Y686685D01*
X820642Y686655D01*
X820638Y686624D01*
X820634Y686586D01*
X820627Y686547D01*
X820603Y686459D01*
X820565Y686367D01*
X820546Y686320D01*
X820519Y686278D01*
X820488Y686232D01*
X820454Y686190D01*
X820450Y686186D01*
X820446Y686182D01*
X820435Y686171D01*
X820419Y686155D01*
X820396Y686140D01*
X820373Y686121D01*
X820346Y686098D01*
X820316Y686079D01*
X820239Y686032D01*
X820150Y685994D01*
X820051Y685960D01*
X819997Y685948D01*
X819939Y685940D01*
X819897Y686251D01*
X819901D01*
X819909Y686255D01*
X819924D01*
X819939Y686263D01*
X819985Y686274D01*
X820043Y686294D01*
X820104Y686317D01*
X820170Y686347D01*
X820227Y686386D01*
X820277Y686428D01*
X820281Y686436D01*
X820296Y686451D01*
X820312Y686478D01*
X820335Y686516D01*
X820354Y686559D01*
X820373Y686612D01*
X820389Y686674D01*
X820392Y686739D01*
Y686762D01*
X820389Y686777D01*
X820385Y686816D01*
X820373Y686866D01*
X820354Y686927D01*
X820331Y686989D01*
X820292Y687050D01*
X820243Y687108D01*
X820235Y687115D01*
X820216Y687131D01*
X820185Y687154D01*
X820139Y687184D01*
X820085Y687211D01*
X820020Y687234D01*
X819947Y687250D01*
X819866Y687257D01*
X819862D01*
X819859D01*
X819847D01*
X819832Y687254D01*
X819793Y687250D01*
X819743Y687238D01*
X819690Y687223D01*
X819628Y687196D01*
X819571Y687161D01*
X819517Y687115D01*
X819509Y687108D01*
X819494Y687092D01*
X819475Y687062D01*
X819448Y687019D01*
X819421Y686970D01*
X819402Y686908D01*
X819386Y686843D01*
X819379Y686766D01*
Y686731D01*
X819382Y686704D01*
X819386Y686674D01*
X819390Y686635D01*
X819398Y686593D01*
X819409Y686547D01*
X819137Y686582D01*
Y686601D01*
X819141Y686616D01*
Y686666D01*
X819137Y686701D01*
X819129Y686751D01*
X819118Y686804D01*
X819098Y686862D01*
X819075Y686923D01*
X819041Y686985D01*
X819037Y686993D01*
X819022Y687012D01*
X818995Y687035D01*
X818960Y687066D01*
X818918Y687096D01*
X818864Y687119D01*
X818799Y687138D01*
X818722Y687146D01*
X818718D01*
X818714D01*
X818695D01*
X818664Y687138D01*
X818622Y687131D01*
X818580Y687119D01*
X818534Y687096D01*
X818484Y687069D01*
X818442Y687031D01*
X818438Y687027D01*
X818422Y687012D01*
X818403Y686985D01*
X818384Y686950D01*
X818361Y686908D01*
X818346Y686858D01*
X818330Y686800D01*
X818326Y686735D01*
Y686704D01*
X818334Y686670D01*
X818342Y686631D01*
X818353Y686582D01*
X818376Y686532D01*
X818403Y686482D01*
X818442Y686432D01*
X818445Y686428D01*
X818461Y686413D01*
X818488Y686393D01*
X818526Y686370D01*
X818572Y686343D01*
X818630Y686320D01*
X818699Y686298D01*
X818780Y686282D01*
X818726Y685971D01*
X818722D01*
X818710Y685975D01*
X818695Y685979D01*
X818676Y685983D01*
X818649Y685990D01*
X818618Y685998D01*
X818549Y686025D01*
X818472Y686056D01*
X818392Y686102D01*
X818315Y686155D01*
X818246Y686225D01*
X818242Y686228D01*
X818238Y686232D01*
X818230Y686244D01*
X818219Y686263D01*
X818207Y686282D01*
X818192Y686305D01*
X818157Y686363D01*
X818127Y686436D01*
X818100Y686524D01*
X818081Y686620D01*
X818073Y686674D01*
Y686762D01*
X818077Y686800D01*
X818085Y686850D01*
X818096Y686908D01*
X818111Y686973D01*
X818134Y687039D01*
X818165Y687104D01*
Y687108D01*
X818169Y687112D01*
X818180Y687135D01*
X818200Y687165D01*
X818227Y687204D01*
X818261Y687246D01*
X818303Y687292D01*
X818353Y687334D01*
X818407Y687373D01*
X818415Y687376D01*
X818434Y687388D01*
X818465Y687403D01*
X818503Y687419D01*
X818553Y687434D01*
X818607Y687450D01*
X818664Y687461D01*
X818730Y687465D01*
X818737D01*
X818756D01*
X818787Y687461D01*
X818826Y687453D01*
X818872Y687442D01*
X818922Y687426D01*
X818975Y687407D01*
X819025Y687376D01*
X819033Y687373D01*
X819048Y687361D01*
X819071Y687338D01*
X819102Y687311D01*
X819137Y687273D01*
X819171Y687231D01*
X819210Y687177D01*
X819240Y687115D01*
Y687119D01*
X819244Y687127D01*
Y687138D01*
X819252Y687154D01*
X819263Y687192D01*
X819286Y687242D01*
X819313Y687296D01*
X819352Y687354D01*
X819398Y687411D01*
X819455Y687461D01*
X819463Y687465D01*
X819486Y687480D01*
X819521Y687499D01*
X819567Y687526D01*
X819624Y687549D01*
X819693Y687569D01*
X819774Y687584D01*
X819862Y687588D01*
X819866D01*
X819878D01*
X819893D01*
X819916Y687584D01*
D02*
G37*
G36*
X819828Y685648D02*
X819847Y685641D01*
X819878Y685633D01*
X819909Y685618D01*
X819951Y685602D01*
X819993Y685587D01*
X820039Y685564D01*
X820143Y685514D01*
X820246Y685445D01*
X820346Y685368D01*
X820392Y685322D01*
X820435Y685272D01*
X820438Y685268D01*
X820442Y685261D01*
X820454Y685245D01*
X820469Y685222D01*
X820485Y685195D01*
X820504Y685165D01*
X820523Y685130D01*
X820542Y685088D01*
X820561Y685042D01*
X820580Y684992D01*
X820600Y684934D01*
X820615Y684877D01*
X820642Y684750D01*
X820646Y684681D01*
X820650Y684608D01*
Y684570D01*
X820646Y684539D01*
Y684504D01*
X820642Y684466D01*
X820634Y684420D01*
X820630Y684374D01*
X820607Y684266D01*
X820580Y684155D01*
X820538Y684047D01*
X820515Y683993D01*
X820485Y683944D01*
X820481Y683940D01*
X820477Y683932D01*
X820465Y683920D01*
X820454Y683901D01*
X820415Y683855D01*
X820362Y683802D01*
X820296Y683736D01*
X820212Y683675D01*
X820116Y683609D01*
X820004Y683556D01*
X820001D01*
X819989Y683552D01*
X819974Y683544D01*
X819951Y683536D01*
X819920Y683525D01*
X819886Y683513D01*
X819847Y683502D01*
X819801Y683490D01*
X819755Y683479D01*
X819701Y683467D01*
X819586Y683444D01*
X819463Y683429D01*
X819329Y683425D01*
X819325D01*
X819310D01*
X819290D01*
X819263Y683429D01*
X819229D01*
X819187Y683433D01*
X819144Y683437D01*
X819094Y683444D01*
X818987Y683464D01*
X818872Y683487D01*
X818753Y683525D01*
X818641Y683575D01*
X818637D01*
X818630Y683583D01*
X818614Y683590D01*
X818591Y683602D01*
X818568Y683617D01*
X818542Y683636D01*
X818476Y683686D01*
X818403Y683744D01*
X818330Y683817D01*
X818257Y683905D01*
X818196Y684001D01*
Y684005D01*
X818188Y684013D01*
X818180Y684028D01*
X818173Y684051D01*
X818161Y684074D01*
X818146Y684105D01*
X818134Y684143D01*
X818119Y684182D01*
X818104Y684224D01*
X818092Y684270D01*
X818065Y684374D01*
X818050Y684489D01*
X818042Y684612D01*
Y684650D01*
X818046Y684677D01*
X818050Y684708D01*
X818054Y684746D01*
X818058Y684788D01*
X818065Y684834D01*
X818088Y684934D01*
X818123Y685042D01*
X818146Y685096D01*
X818173Y685149D01*
X818204Y685199D01*
X818238Y685249D01*
X818242Y685253D01*
X818246Y685261D01*
X818257Y685272D01*
X818273Y685291D01*
X818292Y685311D01*
X818319Y685337D01*
X818346Y685364D01*
X818376Y685391D01*
X818415Y685422D01*
X818453Y685449D01*
X818499Y685480D01*
X818549Y685510D01*
X818599Y685537D01*
X818657Y685564D01*
X818780Y685610D01*
X818856Y685280D01*
X818853D01*
X818845Y685276D01*
X818830Y685272D01*
X818810Y685264D01*
X818787Y685253D01*
X818760Y685242D01*
X818703Y685215D01*
X818637Y685180D01*
X818568Y685134D01*
X818507Y685084D01*
X818453Y685023D01*
X818449Y685015D01*
X818434Y684992D01*
X818415Y684957D01*
X818388Y684907D01*
X818365Y684850D01*
X818346Y684777D01*
X818330Y684696D01*
X818326Y684604D01*
Y684577D01*
X818330Y684558D01*
Y684531D01*
X818334Y684504D01*
X818346Y684435D01*
X818361Y684358D01*
X818388Y684278D01*
X818422Y684197D01*
X818468Y684120D01*
Y684116D01*
X818476Y684113D01*
X818495Y684090D01*
X818526Y684055D01*
X818568Y684013D01*
X818622Y683970D01*
X818684Y683924D01*
X818760Y683882D01*
X818845Y683848D01*
X818849D01*
X818856Y683844D01*
X818868Y683840D01*
X818887Y683836D01*
X818906Y683828D01*
X818933Y683824D01*
X818995Y683809D01*
X819068Y683794D01*
X819148Y683782D01*
X819236Y683775D01*
X819329Y683771D01*
X819333D01*
X819344D01*
X819359D01*
X819382D01*
X819409Y683775D01*
X819444D01*
X819478Y683778D01*
X819517Y683782D01*
X819605Y683794D01*
X819701Y683809D01*
X819797Y683832D01*
X819889Y683863D01*
X819893D01*
X819901Y683867D01*
X819912Y683874D01*
X819928Y683882D01*
X819974Y683901D01*
X820024Y683932D01*
X820085Y683974D01*
X820143Y684024D01*
X820200Y684082D01*
X820250Y684151D01*
Y684155D01*
X820254Y684159D01*
X820262Y684170D01*
X820269Y684186D01*
X820285Y684228D01*
X820308Y684281D01*
X820327Y684343D01*
X820346Y684416D01*
X820362Y684496D01*
X820366Y684581D01*
Y684608D01*
X820362Y684627D01*
Y684650D01*
X820358Y684681D01*
X820346Y684746D01*
X820327Y684819D01*
X820296Y684900D01*
X820258Y684976D01*
X820204Y685053D01*
X820200Y685057D01*
X820197Y685061D01*
X820173Y685084D01*
X820135Y685119D01*
X820085Y685161D01*
X820016Y685203D01*
X819935Y685249D01*
X819835Y685288D01*
X819724Y685318D01*
X819809Y685652D01*
X819812D01*
X819828Y685648D01*
D02*
G37*
G36*
X847458Y687226D02*
X845484D01*
X845488Y687222D01*
X845503Y687207D01*
X845522Y687180D01*
X845549Y687145D01*
X845584Y687103D01*
X845618Y687053D01*
X845661Y686995D01*
X845699Y686930D01*
Y686926D01*
X845703Y686923D01*
X845718Y686899D01*
X845737Y686865D01*
X845761Y686823D01*
X845787Y686773D01*
X845810Y686719D01*
X845837Y686661D01*
X845860Y686608D01*
X845557D01*
Y686611D01*
X845553Y686619D01*
X845545Y686634D01*
X845534Y686650D01*
X845522Y686673D01*
X845511Y686700D01*
X845476Y686761D01*
X845434Y686830D01*
X845384Y686907D01*
X845327Y686984D01*
X845265Y687057D01*
X845261Y687061D01*
X845257Y687065D01*
X845234Y687088D01*
X845200Y687122D01*
X845158Y687164D01*
X845104Y687211D01*
X845046Y687256D01*
X844985Y687299D01*
X844923Y687333D01*
Y687537D01*
X847458D01*
Y687226D01*
D02*
G37*
G36*
X846678Y686082D02*
X846698Y686074D01*
X846728Y686066D01*
X846759Y686051D01*
X846801Y686035D01*
X846843Y686020D01*
X846889Y685997D01*
X846993Y685947D01*
X847097Y685878D01*
X847197Y685801D01*
X847243Y685755D01*
X847285Y685705D01*
X847289Y685701D01*
X847293Y685694D01*
X847304Y685678D01*
X847320Y685655D01*
X847335Y685628D01*
X847354Y685598D01*
X847373Y685563D01*
X847392Y685521D01*
X847412Y685475D01*
X847431Y685425D01*
X847450Y685367D01*
X847466Y685310D01*
X847492Y685183D01*
X847496Y685114D01*
X847500Y685041D01*
Y685003D01*
X847496Y684972D01*
Y684937D01*
X847492Y684899D01*
X847485Y684853D01*
X847481Y684807D01*
X847458Y684699D01*
X847431Y684588D01*
X847389Y684480D01*
X847366Y684426D01*
X847335Y684377D01*
X847331Y684373D01*
X847327Y684365D01*
X847316Y684353D01*
X847304Y684334D01*
X847266Y684288D01*
X847212Y684235D01*
X847147Y684169D01*
X847062Y684108D01*
X846966Y684043D01*
X846855Y683989D01*
X846851D01*
X846840Y683985D01*
X846824Y683977D01*
X846801Y683969D01*
X846770Y683958D01*
X846736Y683947D01*
X846698Y683935D01*
X846651Y683923D01*
X846605Y683912D01*
X846552Y683900D01*
X846436Y683877D01*
X846313Y683862D01*
X846179Y683858D01*
X846175D01*
X846160D01*
X846141D01*
X846114Y683862D01*
X846079D01*
X846037Y683866D01*
X845995Y683870D01*
X845945Y683877D01*
X845837Y683897D01*
X845722Y683920D01*
X845603Y683958D01*
X845492Y684008D01*
X845488D01*
X845480Y684016D01*
X845465Y684023D01*
X845442Y684035D01*
X845419Y684050D01*
X845392Y684069D01*
X845327Y684119D01*
X845254Y684177D01*
X845181Y684250D01*
X845108Y684338D01*
X845046Y684434D01*
Y684438D01*
X845039Y684446D01*
X845031Y684461D01*
X845023Y684484D01*
X845012Y684507D01*
X844996Y684538D01*
X844985Y684576D01*
X844969Y684615D01*
X844954Y684657D01*
X844943Y684703D01*
X844916Y684807D01*
X844900Y684922D01*
X844893Y685045D01*
Y685083D01*
X844897Y685110D01*
X844900Y685141D01*
X844904Y685179D01*
X844908Y685221D01*
X844916Y685267D01*
X844939Y685367D01*
X844973Y685475D01*
X844996Y685529D01*
X845023Y685582D01*
X845054Y685632D01*
X845088Y685682D01*
X845092Y685686D01*
X845096Y685694D01*
X845108Y685705D01*
X845123Y685724D01*
X845142Y685744D01*
X845169Y685771D01*
X845196Y685797D01*
X845227Y685824D01*
X845265Y685855D01*
X845304Y685882D01*
X845350Y685913D01*
X845400Y685943D01*
X845450Y685970D01*
X845507Y685997D01*
X845630Y686043D01*
X845707Y685713D01*
X845703D01*
X845695Y685709D01*
X845680Y685705D01*
X845661Y685698D01*
X845638Y685686D01*
X845611Y685674D01*
X845553Y685648D01*
X845488Y685613D01*
X845419Y685567D01*
X845357Y685517D01*
X845304Y685456D01*
X845300Y685448D01*
X845284Y685425D01*
X845265Y685390D01*
X845238Y685340D01*
X845215Y685283D01*
X845196Y685210D01*
X845181Y685129D01*
X845177Y685037D01*
Y685010D01*
X845181Y684991D01*
Y684964D01*
X845185Y684937D01*
X845196Y684868D01*
X845211Y684791D01*
X845238Y684711D01*
X845273Y684630D01*
X845319Y684553D01*
Y684549D01*
X845327Y684546D01*
X845346Y684522D01*
X845376Y684488D01*
X845419Y684446D01*
X845473Y684403D01*
X845534Y684357D01*
X845611Y684315D01*
X845695Y684281D01*
X845699D01*
X845707Y684277D01*
X845718Y684273D01*
X845737Y684269D01*
X845757Y684261D01*
X845784Y684258D01*
X845845Y684242D01*
X845918Y684227D01*
X845999Y684215D01*
X846087Y684208D01*
X846179Y684204D01*
X846183D01*
X846194D01*
X846210D01*
X846233D01*
X846260Y684208D01*
X846294D01*
X846329Y684211D01*
X846367Y684215D01*
X846456Y684227D01*
X846552Y684242D01*
X846648Y684265D01*
X846740Y684296D01*
X846743D01*
X846751Y684300D01*
X846763Y684307D01*
X846778Y684315D01*
X846824Y684334D01*
X846874Y684365D01*
X846935Y684407D01*
X846993Y684457D01*
X847051Y684515D01*
X847101Y684584D01*
Y684588D01*
X847104Y684592D01*
X847112Y684603D01*
X847120Y684619D01*
X847135Y684661D01*
X847158Y684715D01*
X847178Y684776D01*
X847197Y684849D01*
X847212Y684930D01*
X847216Y685014D01*
Y685041D01*
X847212Y685060D01*
Y685083D01*
X847208Y685114D01*
X847197Y685179D01*
X847178Y685252D01*
X847147Y685333D01*
X847108Y685409D01*
X847055Y685486D01*
X847051Y685490D01*
X847047Y685494D01*
X847024Y685517D01*
X846986Y685552D01*
X846935Y685594D01*
X846866Y685636D01*
X846786Y685682D01*
X846686Y685721D01*
X846575Y685751D01*
X846659Y686085D01*
X846663D01*
X846678Y686082D01*
D02*
G37*
%LPC*%
G36*
X838168Y665087D02*
X838165D01*
X838161D01*
X838138D01*
X838107Y665079D01*
X838065Y665072D01*
X838019Y665056D01*
X837969Y665033D01*
X837919Y664999D01*
X837873Y664957D01*
X837869Y664949D01*
X837854Y664934D01*
X837834Y664899D01*
X837815Y664857D01*
X837792Y664799D01*
X837777Y664730D01*
X837761Y664646D01*
X837757Y664546D01*
Y663751D01*
X838591D01*
Y664503D01*
X838587Y664546D01*
X838583Y664596D01*
X838579Y664653D01*
X838572Y664715D01*
X838560Y664772D01*
X838545Y664822D01*
X838541Y664830D01*
X838537Y664845D01*
X838525Y664868D01*
X838510Y664895D01*
X838487Y664926D01*
X838460Y664960D01*
X838430Y664991D01*
X838395Y665018D01*
X838391Y665022D01*
X838376Y665030D01*
X838356Y665041D01*
X838326Y665053D01*
X838295Y665064D01*
X838257Y665076D01*
X838214Y665083D01*
X838168Y665087D01*
D02*
G37*
%LPD*%
D10*
X838524Y660518D02*
X841476D01*
Y666315D01*
X838524D02*
X841476D01*
X838524Y660518D02*
Y666315D01*
X781201Y680866D02*
X793799D01*
X781201D02*
Y689134D01*
X793799D01*
Y680866D02*
Y689134D01*
X819075Y680276D02*
X822224D01*
Y686575D01*
X819075D02*
X822224D01*
X819075Y680276D02*
Y686575D01*
X843366Y677559D02*
Y690157D01*
X851634D01*
Y677559D02*
Y690157D01*
X843366Y677559D02*
X851634D01*
D13*
X925827Y485669D02*
G03*
X925827Y485669I-1969J0D01*
G01*
X838327D02*
G03*
X838327Y485669I-1969J0D01*
G01*
X920315Y482126D02*
X959685D01*
X920315Y497874D02*
X959685D01*
X920315Y482126D02*
Y497874D01*
X959685Y482126D02*
Y497874D01*
X832815Y482126D02*
X872185D01*
X832815Y497874D02*
X872185D01*
X832815Y482126D02*
Y497874D01*
X872185Y482126D02*
Y497874D01*
M02*
