G04*
G04 #@! TF.GenerationSoftware,Altium Limited,Altium Designer,20.0.2 (26)*
G04*
G04 Layer_Color=255*
%FSLAX25Y25*%
%MOIN*%
G70*
G01*
G75*
%ADD39C,0.09843*%
%ADD51C,0.06000*%
%ADD52O,0.09843X0.09843*%
%ADD53C,0.09042*%
%ADD54C,0.09343*%
%ADD55R,0.05906X0.05906*%
%ADD56C,0.05906*%
%ADD57C,0.11811*%
%ADD58C,0.07874*%
%ADD59R,0.07874X0.07874*%
%ADD60C,0.01656*%
%ADD61C,0.09843*%
D39*
X615000Y570000D02*
D03*
X692500D02*
D03*
Y590000D02*
D03*
Y610000D02*
D03*
X972500Y570000D02*
D03*
Y590000D02*
D03*
Y610000D02*
D03*
X932500Y570000D02*
D03*
Y590000D02*
D03*
Y610000D02*
D03*
X892500Y570000D02*
D03*
Y590000D02*
D03*
Y610000D02*
D03*
X852500Y570000D02*
D03*
Y590000D02*
D03*
Y610000D02*
D03*
X812500Y570000D02*
D03*
Y590000D02*
D03*
Y610000D02*
D03*
X772500Y570000D02*
D03*
Y590000D02*
D03*
Y610000D02*
D03*
X615000Y435000D02*
D03*
Y455000D02*
D03*
Y475000D02*
D03*
X655000Y435000D02*
D03*
Y455000D02*
D03*
Y475000D02*
D03*
X692500Y435000D02*
D03*
Y455000D02*
D03*
Y475000D02*
D03*
X732500Y570000D02*
D03*
Y435000D02*
D03*
Y455000D02*
D03*
Y475000D02*
D03*
X655000Y570000D02*
D03*
Y590000D02*
D03*
Y610000D02*
D03*
D51*
X577500Y447500D02*
D03*
X578000Y670000D02*
D03*
X577500Y635000D02*
D03*
Y597500D02*
D03*
Y560000D02*
D03*
Y523000D02*
D03*
Y485000D02*
D03*
D52*
X615000Y550000D02*
D03*
X692500D02*
D03*
X972500D02*
D03*
X932500D02*
D03*
X892500D02*
D03*
X852500D02*
D03*
X812500D02*
D03*
X772500D02*
D03*
X615000Y415000D02*
D03*
X655000D02*
D03*
X692500D02*
D03*
X732500Y550000D02*
D03*
Y415000D02*
D03*
X655000Y550000D02*
D03*
D53*
X615000Y590000D02*
D03*
D54*
Y610000D02*
D03*
D55*
X655000Y687500D02*
D03*
X622500D02*
D03*
D56*
X665000D02*
D03*
X675000D02*
D03*
X685000D02*
D03*
X695000D02*
D03*
X705000D02*
D03*
X632500D02*
D03*
D57*
X976339Y438346D02*
D03*
Y341850D02*
D03*
X791496D02*
D03*
Y438346D02*
D03*
D58*
X805000Y340000D02*
D03*
X815000D02*
D03*
X825000D02*
D03*
X835000D02*
D03*
X845000D02*
D03*
X855000D02*
D03*
X865000D02*
D03*
X875000D02*
D03*
X885000D02*
D03*
X895000D02*
D03*
X905000D02*
D03*
X915000D02*
D03*
X925000D02*
D03*
X935000D02*
D03*
X945000D02*
D03*
X805000Y440000D02*
D03*
X815000D02*
D03*
X825000D02*
D03*
X835000D02*
D03*
X845000D02*
D03*
X855000D02*
D03*
X865000D02*
D03*
X875000D02*
D03*
X885000D02*
D03*
X895000D02*
D03*
X905000D02*
D03*
X915000D02*
D03*
X925000D02*
D03*
X935000D02*
D03*
D59*
X945000D02*
D03*
D60*
X732106Y667854D02*
D03*
X748445D02*
D03*
D61*
X732500Y590000D02*
D03*
Y610000D02*
D03*
M02*
