G04*
G04 #@! TF.GenerationSoftware,Altium Limited,Altium Designer,20.0.2 (26)*
G04*
G04 Layer_Color=8421504*
%FSLAX25Y25*%
%MOIN*%
G70*
G01*
G75*
%ADD16R,0.06693X0.05906*%
%ADD17R,0.00384X0.04331*%
%ADD18R,0.00484X0.04331*%
%ADD19R,0.02559X0.03740*%
%ADD20O,0.02362X0.05709*%
%ADD21R,0.01860X0.01843*%
%ADD22R,0.03740X0.05512*%
%ADD23R,0.02047X0.02047*%
%ADD24R,0.00375X0.05315*%
%ADD25R,0.06287X0.06580*%
%ADD26R,0.07480X0.07480*%
%ADD27R,0.05512X0.03740*%
D16*
X872303Y690846D02*
D03*
X922697D02*
D03*
D17*
X878799Y675492D02*
D03*
X880768D02*
D03*
X882736D02*
D03*
X884705D02*
D03*
X886673D02*
D03*
X888642D02*
D03*
X900453D02*
D03*
X902421D02*
D03*
X904390D02*
D03*
X906358D02*
D03*
X908327D02*
D03*
X910295D02*
D03*
X912264D02*
D03*
X914232D02*
D03*
X916201D02*
D03*
D18*
X890610D02*
D03*
X892579D02*
D03*
X894547D02*
D03*
X896516D02*
D03*
X898484D02*
D03*
D19*
X808307Y665000D02*
D03*
X815000D02*
D03*
Y654173D02*
D03*
X811654D02*
D03*
X808307D02*
D03*
D20*
X922500Y479272D02*
D03*
X927500D02*
D03*
X932500D02*
D03*
X937500D02*
D03*
X942500D02*
D03*
X947500D02*
D03*
X952500D02*
D03*
X957500D02*
D03*
X922500Y500728D02*
D03*
X927500D02*
D03*
X932500D02*
D03*
X937500D02*
D03*
X942500D02*
D03*
X947500D02*
D03*
X952500D02*
D03*
X957500D02*
D03*
X835000Y479272D02*
D03*
X840000D02*
D03*
X845000D02*
D03*
X850000D02*
D03*
X855000D02*
D03*
X860000D02*
D03*
X865000D02*
D03*
X870000D02*
D03*
X835000Y500728D02*
D03*
X840000D02*
D03*
X845000D02*
D03*
X850000D02*
D03*
X855000D02*
D03*
X860000D02*
D03*
X865000D02*
D03*
X870000D02*
D03*
D21*
X840000Y665000D02*
D03*
Y661834D02*
D03*
D22*
X791142Y685000D02*
D03*
X783858D02*
D03*
D23*
X820650D02*
D03*
Y681850D02*
D03*
D24*
X737717Y666969D02*
D03*
X740276D02*
D03*
X742835D02*
D03*
X735158D02*
D03*
X745394D02*
D03*
D25*
X724528Y677500D02*
D03*
X756024D02*
D03*
D26*
X735551D02*
D03*
X745000D02*
D03*
D27*
X847500Y680216D02*
D03*
Y687500D02*
D03*
M02*
